<svg width="32" height="32" fill="none" stroke="currentColor" stroke-linecap="round" stroke-linejoin="round" stroke-width="1" viewBox="0 0 24 24" xmlns="http://www.w3.org/2000/svg">
   <path d="M21 15c0 3.314-4.03 6-9 6s-9-2.686-9-6"></path>
   <path d="M17 8.5V7a2 2 0 0 1 2-2h.5a2 2 0 0 1 2 2v3a2 2 0 0 1-2 2H19a2 2 0 0 1-2-2V8.5Z"></path>
   <path d="M14.5 9.5v.5a2 2 0 0 1-2 2H12a2 2 0 0 1-2-2v-.5a2 2 0 0 1 2-2h.5a2 2 0 0 1 2 2Z"></path>
   <path d="M14 5h-1a3 3 0 0 0-3 3v2"></path>
   <path d="M4 8.5h1.75a1.75 1.75 0 1 1 0 3.5H3"></path>
   <path d="M5.75 8.5a1.75 1.75 0 1 0 0-3.5H3"></path>
</svg>