<svg width="32" height="32" fill="none" stroke="currentColor" stroke-linecap="round" stroke-linejoin="round" stroke-width="1" viewBox="0 0 24 24" xmlns="http://www.w3.org/2000/svg">
   <path d="M3 19V5a2 2 0 0 1 2-2h14a2 2 0 0 1 2 2v14a2 2 0 0 1-2 2H5a2 2 0 0 1-2-2Z"></path>
   <path d="M9.72 11.79a3 3 0 1 0 3.576 4.644"></path>
   <path d="M12 14h2.5l1 1.5h1"></path>
   <path d="M12 11h2.5M12 9.5V11 9.5Zm0 4.5v-3 3Z"></path>
   <path fill="currentColor" d="M12 7.5a.5.5 0 1 1 0-1 .5.5 0 0 1 0 1Z"></path>
</svg>