<svg width="32" height="32" fill="none" stroke="currentColor" stroke-linecap="round" stroke-linejoin="round" stroke-width="1" viewBox="0 0 24 24" xmlns="http://www.w3.org/2000/svg">
   <path d="M5 12v3m-3-3h3-3Zm6 0H5h3Zm-3 0V9v3Z"></path>
   <path d="m6.25 6.002.245-.28a2 2 0 0 1 3.01 0l4.343 4.963a2 2 0 0 1 0 2.634l-4.343 4.963a2 2 0 0 1-3.01 0l-.245-.28"></path>
   <path d="m13 19 4.884-5.698a2 2 0 0 0 0-2.604L13 5"></path>
   <path d="m17 19 4.884-5.698a2 2 0 0 0 0-2.604L17 5"></path>
</svg>