<svg width="32" height="32" fill="none" stroke="currentColor" stroke-linecap="round" stroke-linejoin="round" stroke-width="1" viewBox="0 0 24 24" xmlns="http://www.w3.org/2000/svg">
   <path d="M22 3.6V11H2V3.6a.6.6 0 0 1 .6-.6h18.8a.6.6 0 0 1 .6.6Z"></path>
   <path d="M18 7h1"></path>
   <path d="m2 11 .79 2.584A2 2 0 0 0 4.702 15H6"></path>
   <path d="m22 11-.79 2.584A2 2 0 0 1 19.298 15H18"></path>
   <path d="M9.5 14.5s0 7-3.5 7"></path>
   <path d="M14.5 14.5s0 7 3.5 7"></path>
   <path d="M12 14.5v7"></path>
</svg>