<svg width="32" height="32" fill="none" stroke="currentColor" stroke-linecap="round" stroke-linejoin="round" stroke-width="1" viewBox="0 0 24 24" xmlns="http://www.w3.org/2000/svg">
   <path d="M14.12 14.121A3 3 0 1 0 9.877 9.88a3 3 0 0 0 4.243 4.242Z"></path>
   <path d="M9.879 9.877s-2.803.01-4.243-1.414C4.227 7.053 2.77 5.67 4.222 4.22 5.6 2.844 7.03 4.206 8.464 5.635 9.87 7.036 9.88 9.877 9.88 9.877Z" clip-rule="evenodd"></path>
   <path d="M14.121 9.882s-.01-2.802 1.414-4.242c1.41-1.409 2.794-2.865 4.243-1.414 1.377 1.378.015 2.809-1.414 4.242-1.402 1.406-4.243 1.414-4.243 1.414Z" clip-rule="evenodd"></path>
   <path d="M9.878 14.125s.01 2.802-1.414 4.243c-1.41 1.408-2.794 2.864-4.243 1.414-1.376-1.378-.014-2.81 1.415-4.243 1.401-1.405 4.242-1.414 4.242-1.414Z" clip-rule="evenodd"></path>
   <path d="M14.121 14.125s2.802-.01 4.243 1.414c1.408 1.41 2.864 2.794 1.414 4.243-1.378 1.377-2.81.015-4.243-1.414-1.405-1.402-1.414-4.243-1.414-4.243Z" clip-rule="evenodd"></path>
</svg>