<svg width="32" height="32" fill="none" stroke="currentColor" stroke-linecap="round" stroke-linejoin="round" stroke-width="1" viewBox="0 0 24 24" xmlns="http://www.w3.org/2000/svg">
   <path d="M9.879 14.121A3 3 0 1 0 14.12 9.88a3 3 0 0 0-4.24 4.24Z"></path>
   <path d="M4.37 16.77A8.955 8.955 0 0 1 3.002 12c0-4.237 2.934-7.793 6.878-8.748A8.998 8.998 0 0 1 12 3"></path>
   <path d="M19.715 7.367a8.953 8.953 0 0 1 1.284 4.634c0 3.806-2.368 7.063-5.71 8.378A8.98 8.98 0 0 1 12 21"></path>
   <path d="M14.121 9.882s-.01-2.802 1.414-4.242c1.41-1.409 2.794-2.865 4.243-1.414 1.377 1.378.015 2.809-1.414 4.242-1.402 1.406-4.243 1.414-4.243 1.414Z" clip-rule="evenodd"></path>
   <path d="M9.878 14.117s.01 2.802-1.414 4.243c-1.41 1.408-2.794 2.864-4.243 1.414-1.376-1.378-.014-2.81 1.415-4.243 1.401-1.405 4.242-1.414 4.242-1.414Z" clip-rule="evenodd"></path>
</svg>