<svg width="32" height="32" fill="none" stroke="currentColor" stroke-linecap="round" stroke-linejoin="round" stroke-width="1" viewBox="0 0 24 24" xmlns="http://www.w3.org/2000/svg">
   <path d="M10.5 7.5v-3a1.5 1.5 0 0 1 3 0v4.667a.6.6 0 0 0 .282.51l7.436 4.647a.6.6 0 0 1 .282.508v.9a.6.6 0 0 1-.745.582l-2.006-.502"></path>
   <path d="m9.881 9.887-7.099 4.436a.6.6 0 0 0-.282.51v.898a.6.6 0 0 0 .746.582l6.508-1.627a.6.6 0 0 1 .746.582v2.96a.6.6 0 0 1-.205.451l-2.16 1.89c-.458.401-.097 1.151.502 1.042l3.256-.592a.6.6 0 0 1 .214 0l3.256.592c.599.11.96-.64.502-1.042l-2.16-1.89a.6.6 0 0 1-.205-.451v-2.96a.6.6 0 0 1 .745-.582l.458.114L9.88 9.887Z"></path>
   <path d="m3 3 18 18"></path>
</svg>