<svg width="32" height="32" fill="none" stroke="currentColor" stroke-linecap="round" stroke-width="1" viewBox="0 0 24 24" xmlns="http://www.w3.org/2000/svg">
   <path d="M3 20.4V3.6a.6.6 0 0 1 .6-.6h16.8a.6.6 0 0 1 .6.6v16.8a.6.6 0 0 1-.6.6H3.6a.6.6 0 0 1-.6-.6Z"></path>
   <path fill="currentColor" stroke="none" d="M12 15.5a1.5 1.5 0 1 1-3 0 1.5 1.5 0 0 1 3 0Z"></path>
   <path d="M12 15.5a1.5 1.5 0 1 1-3 0 1.5 1.5 0 0 1 3 0Z"></path>
   <path d="M12 15.5V7.6a.6.6 0 0 1 .6-.6H15"></path>
</svg>