<svg width="32" height="32" fill="none" stroke="currentColor" stroke-linecap="round" stroke-width="1" viewBox="0 0 24 24" xmlns="http://www.w3.org/2000/svg">
   <path d="M2 19.4V4.6a.6.6 0 0 1 .6-.6h14.8a.6.6 0 0 1 .6.6v14.8a.6.6 0 0 1-.6.6H2.6a.6.6 0 0 1-.6-.6Z"></path>
   <path d="M22 6v12"></path>
   <path fill="currentColor" stroke="none" d="M11 14.5a1.5 1.5 0 1 1-3 0 1.5 1.5 0 0 1 3 0Z"></path>
   <path d="M11 14.5a1.5 1.5 0 1 1-3 0 1.5 1.5 0 0 1 3 0Z"></path>
   <path d="M11 14.5V8.6a.6.6 0 0 1 .6-.6H13"></path>
</svg>