<svg width="32" height="32" fill="none" stroke="currentColor" stroke-linecap="round" stroke-linejoin="round" stroke-width="1" viewBox="0 0 24 24" xmlns="http://www.w3.org/2000/svg">
   <path d="M2 15V9a6 6 0 0 1 6-6h8a6 6 0 0 1 6 6v6a6 6 0 0 1-6 6H8a6 6 0 0 1-6-6Z"></path>
   <path d="M15 9s1 1.125 1 3-1 3-1 3"></path>
   <path d="m12 12.011.01-.011"></path>
   <path d="M17 7s2 1.786 2 5-2 5-2 5"></path>
   <path d="M9 9s-1 1.125-1 3 1 3 1 3"></path>
   <path d="M7 7s-2 1.786-2 5 2 5 2 5"></path>
</svg>