<svg width="32" height="32" fill="none" stroke="currentColor" stroke-linecap="round" stroke-linejoin="round" stroke-width="1" viewBox="0 0 24 24" xmlns="http://www.w3.org/2000/svg">
   <path d="m12.147 21.263-.147-.03-.147.03c-2.377.475-4.62.21-6.26-1.1-1.63-1.305-2.843-3.79-2.843-8.165 0-4.473 1.008-6.29 2.335-6.954.695-.347 1.593-.448 2.735-.316 1.141.131 2.458.487 3.943.982l.26.087.255-.102c2.482-.993 4.713-1.373 6.28-.642 1.47.685 2.692 2.538 2.692 6.945 0 4.374-1.213 6.86-2.843 8.164-1.64 1.312-3.883 1.576-6.26 1.1Z"></path>
   <path d="M12 5.5C12 3 11 2 9 2"></path>
</svg>