<svg width="32" height="32" fill="none" stroke="currentColor" stroke-linecap="round" stroke-linejoin="round" stroke-width="1" viewBox="0 0 24 24" xmlns="http://www.w3.org/2000/svg">
   <path d="M4.404 13.61C3.515 13.145 3 12.592 3 12c0-1.657 4.03-3 9-3s9 1.343 9 3c0 .714-.75 1.37-2 1.886"></path>
   <path d="m12 11.011.01-.011"></path>
   <path d="M16.882 6.002c-.004-1.022-.262-1.746-.797-2.019-1.476-.752-4.502 2.229-6.759 6.657-2.256 4.43-2.889 8.63-1.413 9.381.528.27 1.253.061 2.07-.518"></path>
   <path d="M9.6 4.254c-.66-.386-1.243-.497-1.687-.27-1.476.752-.843 4.952 1.413 9.38 2.257 4.43 5.283 7.41 6.76 6.657 1.312-.668.958-4.06-.722-7.917"></path>
</svg>