<svg width="32" height="32" fill="none" stroke="currentColor" stroke-linecap="round" stroke-linejoin="round" stroke-width="1" viewBox="0 0 24 24" xmlns="http://www.w3.org/2000/svg">
   <path d="M3.426 13.006c-.057 0-.057 0-.115-.006-.633-.07-1.095-.698-1.032-1.402l.61-7.445C2.95 3.5 3.445 3 4.037 3H8.5c.128 0 .254.023.375.07.602.23.922.958.715 1.627L8.1 8.802h2.748c.203 0 .402.06.578.173.55.356.738 1.14.418 1.75-.414.816-4.58 7.816-5.926 10.075-.107.18-.381.092-.37-.117L6 13l-2.573.006Z"></path>
   <path d="M21.308 8h-4.616M16 9.5l.692-1.5L16 9.5Zm6 0L21.308 8 22 9.5ZM21.308 8 19 3l-2.308 5h4.616Z"></path>
</svg>