<svg width="32" height="32" fill="none" stroke="currentColor" stroke-linecap="round" stroke-linejoin="round" stroke-width="1" viewBox="0 0 24 24" xmlns="http://www.w3.org/2000/svg">
   <path d="M8.5 14.5 5 22"></path>
   <path d="M8 6s1-1.061 1-2c0-1.333-1-2-1-2"></path>
   <path d="M12 6s1-1.061 1-2c0-1.333-1-2-1-2"></path>
   <path d="M16 6s1-1.061 1-2c0-1.333-1-2-1-2"></path>
   <path d="M16.5 17.5h-9"></path>
   <path d="m15.5 14.5 2.1 4.5"></path>
   <path d="M18.5 22a1.5 1.5 0 1 0 0-3 1.5 1.5 0 0 0 0 3Z"></path>
   <path d="M12 15a7 7 0 0 0 6.975-6.4.563.563 0 0 0-.575-.6H5.6a.563.563 0 0 0-.575.6A7 7 0 0 0 12 15Z"></path>
</svg>