<svg width="32" height="32" fill="none" stroke="currentColor" stroke-width="1" viewBox="0 0 24 24" xmlns="http://www.w3.org/2000/svg">
   <path d="M3.04 4.294a.496.496 0 0 1 .191-.479C3.927 3.32 6.314 2 12.001 2c5.685 0 8.072 1.32 8.768 1.815a.496.496 0 0 1 .192.479l-1.7 12.744a4 4 0 0 1-1.98 2.944l-.32.183a10 10 0 0 1-9.922 0l-.32-.183a4 4 0 0 1-1.98-2.944l-1.7-12.744Z"></path>
   <path d="M3 5c2.571 2.667 15.429 2.667 18 0"></path>
   <path d="m14 14.5 6-3M11 18l3-3.5-3 3.5Zm3-3.5 5 2.5-5-2.5Z"></path>
   <path d="m4.5 16 3.236-.463a.6.6 0 0 1 .469.133L11 18l3 3"></path>
   <path d="m8 15.502 2.615-3.05a.6.6 0 0 1 .84-.07L14 14.501"></path>
</svg>