<svg width="32" height="32" fill="none" stroke="currentColor" stroke-linecap="round" stroke-linejoin="round" stroke-width="1" viewBox="0 0 24 24" xmlns="http://www.w3.org/2000/svg">
   <path d="M9 14c0 1.61 1.377 2 3.076 2 2.89 0 3.845-1.667 1.922-5-2.691 3-3.076-1.667-2.691-3C10.153 10 9 11.879 9 14Z"></path>
   <path d="M12 16c3.156 0 5-2.098 5-5.688S12 3 12 3s-5 3.723-5 7.313S8.844 16 12 16Z"></path>
   <path d="m4.272 21.07 15.455-4.14"></path>
   <path d="M4.272 16.93 12 19"></path>
   <path d="m19.727 21.067-3.864-1.036"></path>
</svg>