<svg width="32" height="32" fill="none" stroke="currentColor" stroke-linecap="round" stroke-linejoin="round" stroke-width="1" viewBox="0 0 24 24" xmlns="http://www.w3.org/2000/svg">
   <path d="M4 20.011 4.01 20"></path>
   <path d="M4 16.011 4.01 16"></path>
   <path d="M4 8.011 4.01 8"></path>
   <path d="M4 4.011 4.01 4"></path>
   <path d="M8 4.011 8.01 4"></path>
   <path d="M16 4.011 16.01 4"></path>
   <path d="M20 4.011 20.01 4"></path>
   <path d="M20 8.011 20.01 8"></path>
   <path d="M8 20.011 8.01 20"></path>
   <path d="m16 20.011.01-.011"></path>
   <path d="m20 20.011.01-.011"></path>
   <path d="m20 16.011.01-.011"></path>
   <path d="M12 12v8m-8-8h8-8Zm16 0h-8 8Zm-8 0V4v8Z"></path>
</svg>