<svg width="32" height="32" fill="none" stroke="currentColor" stroke-linecap="round" stroke-linejoin="round" stroke-width="1" viewBox="0 0 24 24" xmlns="http://www.w3.org/2000/svg">
   <path fill="currentColor" stroke="none" d="m2.695 7.183 9 4 .61-1.37-9-4-.61 1.37ZM12.75 21.498v-11h-1.5v11h1.5Zm-.445-10.315 9-4-.61-1.37-9 4 .61 1.37Z"></path>
   <path d="M3 17.108V6.888a.6.6 0 0 1 .356-.548l8.4-3.734a.6.6 0 0 1 .488 0l8.4 3.734a.6.6 0 0 1 .356.548v10.22a.6.6 0 0 1-.356.549l-8.4 3.733a.6.6 0 0 1-.488 0l-8.4-3.733A.6.6 0 0 1 3 17.108Z"></path>
   <path d="m7.5 4.5 8.644 3.842a.6.6 0 0 1 .356.548v3.61"></path>
</svg>