<svg width="32" height="32" fill="none" stroke="currentColor" stroke-linecap="round" stroke-linejoin="round" stroke-width="1" viewBox="0 0 24 24" xmlns="http://www.w3.org/2000/svg">
   <path d="M8.489 17.727C5.2 15.546 3.556 10.091 4.104 8.455c.438-1.31 2.375-.91 3.289-.546C7.393 4.091 9.037 3 13.423 3 17.806 3 20 4.09 20 9.545c0 4.364-1.096 7.273-1.644 8.182m-9.867 0h9.867-9.867Zm0 0V21h9.867v-3.273H8.489Z"></path>
   <path d="M7.393 7.906c.365.364 1.425 1.091 2.74 1.091h4.934"></path>
   <path d="M7.393 7.906c0 3.819 1.644 4.364 2.74 4.364"></path>
</svg>