<svg width="32" height="32" fill="none" stroke="currentColor" stroke-linecap="round" stroke-linejoin="round" stroke-width="1" viewBox="0 0 24 24" xmlns="http://www.w3.org/2000/svg">
   <path d="M13 2.05c-.329-.033-.662-.05-1-.05C6.477 2 2 6.477 2 12c0 1.821.487 3.53 1.338 5L2.5 21.5l4.5-.838A9.955 9.955 0 0 0 12 22c5.523 0 10-4.477 10-10 0-.338-.017-.671-.05-1"></path>
   <path d="m19.242 5.246 2.122 2.122m-4.243 0 2.121-2.122-2.12 2.122Zm2.121-2.122 2.122-2.121-2.122 2.121Zm0 0-2.12-2.121 2.12 2.121Z"></path>
</svg>