<svg width="32" height="32" fill="none" stroke="currentColor" stroke-linecap="round" stroke-linejoin="round" stroke-width="1" viewBox="0 0 24 24" xmlns="http://www.w3.org/2000/svg">
   <path d="m16 16.011.01-.011"></path>
   <path d="M6 16.011 6.01 16"></path>
   <path d="M20 8h-2V2h4v6h-2Z"></path>
   <path fill="currentColor" d="M4 20v2h2v-2H4Z"></path>
   <path fill="currentColor" d="M14 20v2h2v-2h-2Z"></path>
   <path d="M16 20H2.6a.6.6 0 0 1-.6-.6v-6.8a.6.6 0 0 1 .6-.6H16"></path>
   <path d="M14 2H6a4 4 0 0 0-4 4v2"></path>
   <path d="M14 8H6"></path>
   <path d="M20 22V8"></path>
</svg>