<svg width="32" height="32" fill="none" stroke="currentColor" stroke-linecap="round" stroke-linejoin="round" stroke-width="1" viewBox="0 0 24 24" xmlns="http://www.w3.org/2000/svg">
   <path d="M1 21V3a2 2 0 0 1 2-2h18a2 2 0 0 1 2 2v18a2 2 0 0 1-2 2H3a2 2 0 0 1-2-2Z"></path>
   <path d="M15 7h4"></path>
   <path d="M15 15.5h4"></path>
   <path d="M15 18.5h4"></path>
   <path d="M7 7v2M5 7h2-2Zm4 0H7h2ZM7 7V5v2Z"></path>
   <path d="m7 17 1.414 1.414m-2.828 0L7 17l-1.414 1.414Zm2.828-2.828L7 17l1.414-1.414ZM7 17l-1.414-1.414L7 17Z"></path>
</svg>