<svg width="32" height="32" fill="none" stroke="currentColor" stroke-linecap="round" stroke-linejoin="round" stroke-width="1" viewBox="0 0 24 24" xmlns="http://www.w3.org/2000/svg">
   <path fill="currentColor" d="M19.5 22a1.5 1.5 0 1 0 0-3 1.5 1.5 0 0 0 0 3Z"></path>
   <path fill="currentColor" d="M9.5 22a1.5 1.5 0 1 0 0-3 1.5 1.5 0 0 0 0 3Z"></path>
   <path d="M5 4c-.167-.667-1-2-3-2m3 2h17l-2 11H7L5 4Z"></path>
   <path d="M20 15H5.23c-1.784 0-2.73.781-2.73 2 0 1.219.946 2 2.73 2H19.5"></path>
</svg>