<svg width="32" height="32" fill="none" stroke="currentColor" stroke-linecap="round" stroke-linejoin="round" stroke-width="1" viewBox="0 0 24 24" xmlns="http://www.w3.org/2000/svg">
   <path d="M10 19V5m4 0h7.4a.6.6 0 0 1 .6.6v12.8a.6.6 0 0 1-.6.6H14V5Zm0 0v14V5Zm0 0h-4 4Zm0 14h-4 4Zm-4 0H2.6a.6.6 0 0 1-.6-.6V5.6a.6.6 0 0 1 .6-.6H10v14Z"></path>
   <path fill="currentColor" stroke="none" d="M7 9.85c0-.414-.413-.698-.75-.456A2.996 2.996 0 0 0 5 11.83c0 1.004.493 1.893 1.25 2.437.337.242.75-.042.75-.456V9.85Z"></path>
   <path fill="currentColor" stroke="none" d="M17 9.85c0-.414.413-.698.75-.456A2.996 2.996 0 0 1 19 11.83a2.996 2.996 0 0 1-1.25 2.437c-.337.242-.75-.042-.75-.456V9.85Z"></path>
</svg>