<svg width="32" height="32" fill="none" stroke="currentColor" stroke-linecap="round" stroke-linejoin="round" stroke-width="1" viewBox="0 0 24 24" xmlns="http://www.w3.org/2000/svg">
   <path d="M2 20.011 2.01 20"></path>
   <path d="M15 20h5a2 2 0 0 0 2-2V6a2 2 0 0 0-2-2H4a2 2 0 0 0-2 2v1"></path>
   <path d="M2 16c2 .5 3.5 2 4 4"></path>
   <path d="M2 12c4 .5 7.5 4 8 8"></path>
   <path fill="currentColor" fill-rule="evenodd" stroke="none" d="M5.002 7.631a.6.6 0 0 1 .6-.6h12.804a.6.6 0 0 1 .6.6v8.832a.6.6 0 0 1-.6.6H13.44a.617.617 0 0 1-.556-.355c-.422-.892-1.622-3.26-3.07-4.707-1.42-1.419-3.572-2.444-4.435-2.82a.624.624 0 0 1-.378-.569v-.98Z" clip-rule="evenodd"></path>
</svg>