<svg width="32" height="32" fill="none" stroke="currentColor" stroke-linecap="round" stroke-linejoin="round" stroke-width="1" viewBox="0 0 24 24" xmlns="http://www.w3.org/2000/svg">
   <path d="M7.576 7.426a.6.6 0 0 1 .848 0l3.4 3.4a.6.6 0 0 1 .176.424v10.151a.6.6 0 0 1-.6.6H4.6a.6.6 0 0 1-.6-.6V11.25a.6.6 0 0 1 .176-.424l3.4-3.4Z"></path>
   <path d="M8 4h2M8 7V4v3Zm0-5v2-2Zm0 2H6h2Z"></path>
   <path d="M12 22h7.4a.6.6 0 0 0 .6-.6V10.749a.6.6 0 0 0-.176-.425l-3.148-3.148A.6.6 0 0 0 16.252 7H8"></path>
   <path d="M8 22v-5"></path>
   <path d="M8 13.011 8.01 13"></path>
</svg>