<svg width="32" height="32" fill="none" stroke="currentColor" stroke-linecap="round" stroke-linejoin="round" stroke-width="1" viewBox="0 0 24 24" xmlns="http://www.w3.org/2000/svg">
   <path d="M7 14a2 2 0 1 0 0-4 2 2 0 0 0 0 4Z"></path>
   <path d="M17 14a2 2 0 1 0 0-4 2 2 0 0 0 0 4Z"></path>
   <path d="M12 9a2 2 0 1 0 0-4 2 2 0 0 0 0 4Z"></path>
   <path d="M12 19a2 2 0 1 0 0-4 2 2 0 0 0 0 4Z"></path>
   <path d="M2 12v10m0-10c0 5.523 4.477 10 10 10s10-4.477 10-10S17.523 2 12 2 2 6.477 2 12Z"></path>
</svg>