<svg width="32" height="32" fill="none" stroke="currentColor" stroke-linecap="round" stroke-linejoin="round" stroke-width="1" viewBox="0 0 24 24" xmlns="http://www.w3.org/2000/svg">
   <path d="M20 17.607c1.494-.585 3-1.918 3-4.607 0-4-3.333-5-5-5 0-2 0-6-6-6S6 6 6 8c-1.667 0-5 1-5 5 0 2.689 1.506 4.022 3 4.607"></path>
   <path d="m7.581 19.484 1.768 1.768a4 4 0 0 0 5.657 0l.353-.353"></path>
   <path d="m7.935 21.96-.354-2.476 2.475.354-2.121 2.121Z"></path>
   <path d="m16.298 16.9-1.768-1.767a4 4 0 0 0-5.657 0l-.353.353"></path>
   <path d="m15.944 14.43.354 2.475-2.475-.354 2.121-2.121Z"></path>
</svg>