<svg width="32" height="32" fill="none" stroke="currentColor" stroke-linecap="round" stroke-linejoin="round" stroke-width="1" viewBox="0 0 24 24" xmlns="http://www.w3.org/2000/svg">
   <path d="m13.879 7.7 2.12 2.12a1 1 0 0 1 0 1.415L8.364 18.87a1.001 1.001 0 0 1-.326.218L5.54 20.117c-1.233.508-2.466-.725-1.958-1.958l1.028-2.497a.999.999 0 0 1 .218-.326l7.636-7.637a1 1 0 0 1 1.415 0Z"></path>
   <path d="m16 5.574 2.122 2.122m-4.243-4.243L16 5.574l-2.121-2.12Zm6.364 6.364-2.121-2.121 2.12 2.121ZM16 5.574l1.415-1.414a1 1 0 0 1 1.414 0l.707.707a1 1 0 0 1 0 1.415l-1.414 1.414L16 5.574Z"></path>
</svg>