<svg width="32" height="32" fill="none" stroke="currentColor" stroke-linecap="round" stroke-linejoin="round" stroke-width="1" viewBox="0 0 24 24" xmlns="http://www.w3.org/2000/svg">
   <path d="M7 13.164h7.071m-7.071 0 5.464-5.465a1 1 0 0 1 1.415 0l2.12 2.121a1 1 0 0 1 0 1.415l-1.928 1.929H7Zm0 0-2.172 2.172a.999.999 0 0 0-.218.326L3.582 18.16c-.508 1.233.725 2.466 1.958 1.958l2.497-1.028a.983.983 0 0 0 .326-.218l5.708-5.707H7Z"></path>
   <path d="m16 5.574 2.12 2.122m-4.242-4.243 2.121 2.121-2.121-2.12Zm6.364 6.364L18.12 7.696l2.122 2.121Zm-4.243-4.243 1.414-1.414a1 1 0 0 1 1.415 0l.707.707a1 1 0 0 1 0 1.415L18.12 7.696 16 5.574Z"></path>
</svg>