<svg width="32" height="32" fill="none" stroke="currentColor" stroke-linecap="round" stroke-linejoin="round" stroke-width="1" viewBox="0 0 24 24" xmlns="http://www.w3.org/2000/svg">
   <path d="M22.003 3v4.497A.503.503 0 0 1 21.5 8a.52.52 0 0 1-.465-.3A10 10 0 0 0 12.003 2c-5.185 0-9.449 3.947-9.95 9"></path>
   <path d="M17 10v5a2 2 0 0 1-2 2H9a2 2 0 0 1-2-2v-5a2 2 0 0 1 2-2h6a2 2 0 0 1 2 2Z"></path>
   <path d="M12 11V8"></path>
   <path d="M2.05 21v-4.497c0-.278.226-.503.504-.503.2 0 .38.119.466.3a10.001 10.001 0 0 0 9.03 5.7c5.186 0 9.45-3.947 9.951-9"></path>
</svg>