<svg width="32" height="32" fill="none" stroke="currentColor" stroke-linecap="round" stroke-linejoin="round" stroke-width="1" viewBox="0 0 24 24" xmlns="http://www.w3.org/2000/svg">
   <path d="M19 2v4"></path>
   <path d="m19 10.011.01-.011"></path>
   <path d="M16 14v1.4a.6.6 0 0 1-.6.6H8.6a.6.6 0 0 1-.6-.6V8.6a.6.6 0 0 1 .6-.6H14"></path>
   <path d="M20 14v5.4a.6.6 0 0 1-.6.6H4.6a.6.6 0 0 1-.6-.6V4.6a.6.6 0 0 1 .6-.6H14"></path>
   <path d="M20 17h2"></path>
   <path d="M17 20v2"></path>
   <path d="M12 20v2"></path>
   <path d="M7 20v2"></path>
   <path d="M4 17H2"></path>
   <path d="M4 12H2"></path>
   <path d="M4 7H2"></path>
   <path d="M12 4V2"></path>
   <path d="M7 4V2"></path>
</svg>