<svg width="32" height="32" fill="none" stroke="currentColor" stroke-linecap="round" stroke-linejoin="round" stroke-width="1" viewBox="0 0 24 24" xmlns="http://www.w3.org/2000/svg">
   <path d="M12 7.011 12.01 7"></path>
   <path d="M16 9.011 16.01 9"></path>
   <path d="M8 9.011 8.01 9"></path>
   <path d="m18 13.011.01-.011"></path>
   <path d="M6 13.011 6.01 13"></path>
   <path d="m17 17.011.01-.011"></path>
   <path d="M7 17.011 7.01 17"></path>
   <path d="m12 17 1-6"></path>
   <path d="M8.5 20.001H4A9.956 9.956 0 0 1 2 14C2 8.477 6.477 4 12 4s10 4.477 10 10c0 2.252-.744 4.33-2 6.001L15.5 20"></path>
   <path d="M12 23a3 3 0 1 0 0-6 3 3 0 0 0 0 6Z"></path>
</svg>