<svg width="32" height="32" fill="none" stroke="currentColor" stroke-linecap="round" stroke-linejoin="round" stroke-width="1" viewBox="0 0 24 24" xmlns="http://www.w3.org/2000/svg">
   <path d="M4 6v6s0 3 7 3 7-3 7-3V6"></path>
   <path d="M11 3c7 0 7 3 7 3s0 3-7 3-7-3-7-3 0-3 7-3Z"></path>
   <path d="M11 21c-7 0-7-3-7-3v-6"></path>
   <path d="m17.306 17.113.909-1.927a.312.312 0 0 1 .57 0l.91 1.927 2.032.311c.261.04.365.376.177.568l-1.471 1.5.347 2.118c.044.272-.229.48-.462.351l-1.818-1-1.818 1c-.233.129-.506-.079-.462-.351l.347-2.118-1.47-1.5c-.19-.192-.085-.528.176-.568l2.033-.31Z"></path>
</svg>