<svg width="32" height="32" fill="none" stroke="currentColor" stroke-linecap="round" stroke-linejoin="round" stroke-width="1" viewBox="0 0 24 24" xmlns="http://www.w3.org/2000/svg">
   <path d="M8 19a2 2 0 1 0 0-4 2 2 0 0 0 0 4Z"></path>
   <path d="M18 19a2 2 0 1 0 0-4 2 2 0 0 0 0 4Z"></path>
   <path d="M10.05 17H15V6.6a.6.6 0 0 0-.6-.6H1"></path>
   <path d="M5.65 17H3.6a.6.6 0 0 1-.6-.6v-4.9"></path>
   <path d="M2 9h4"></path>
   <path d="M15 9h5.61a.6.6 0 0 1 .548.356l1.79 4.028a.6.6 0 0 1 .052.243V16.4a.6.6 0 0 1-.6.6h-1.9"></path>
   <path d="M15 17h1"></path>
</svg>