<svg width="32" height="32" fill="none" stroke="currentColor" stroke-linecap="round" stroke-linejoin="round" stroke-width="1" viewBox="0 0 24 24" xmlns="http://www.w3.org/2000/svg">
   <path fill="currentColor" d="M6 7a1 1 0 1 1 0-2 1 1 0 0 1 0 2Z"></path>
   <path fill="currentColor" d="M12 7a1 1 0 1 1 0-2 1 1 0 0 1 0 2Z"></path>
   <path fill="currentColor" d="M18 7a1 1 0 1 1 0-2 1 1 0 0 1 0 2Z"></path>
   <path fill="currentColor" d="M6 13a1 1 0 1 1 0-2 1 1 0 0 1 0 2Z"></path>
   <path fill="currentColor" d="M12 13a1 1 0 1 1 0-2 1 1 0 0 1 0 2Z"></path>
   <path fill="currentColor" d="M18 13a1 1 0 1 1 0-2 1 1 0 0 1 0 2Z"></path>
   <path fill="currentColor" d="M12 19a1 1 0 1 1 0-2 1 1 0 0 1 0 2Z"></path>
</svg>