<svg width="32" height="32" fill="none" stroke="currentColor" stroke-linecap="round" stroke-linejoin="round" stroke-width="1" viewBox="0 0 24 24" xmlns="http://www.w3.org/2000/svg">
   <path d="m14 15 1.5 1.5"></path>
   <path d="M8.5 12.5a3 3 0 1 0 6 0 3 3 0 0 0-6 0Z"></path>
   <path d="M4 21.4V2.6a.6.6 0 0 1 .6-.6h11.652a.6.6 0 0 1 .424.176l3.148 3.148A.6.6 0 0 1 20 5.75V21.4a.6.6 0 0 1-.6.6H4.6a.6.6 0 0 1-.6-.6Z"></path>
   <path fill="currentColor" d="M16 5.4V2.354a.354.354 0 0 1 .604-.25l3.292 3.292a.353.353 0 0 1-.25.604H16.6a.6.6 0 0 1-.6-.6Z"></path>
</svg>