<svg width="32" height="32" fill="none" stroke="currentColor" stroke-linecap="round" stroke-linejoin="round" stroke-width="1" viewBox="0 0 24 24" xmlns="http://www.w3.org/2000/svg">
   <path d="M16 6.28a2.28 2.28 0 0 1-.662 1.606c-.976.984-1.923 2.01-2.936 2.958a.597.597 0 0 1-.822-.017l-2.918-2.94a2.281 2.281 0 0 1 0-3.214 2.277 2.277 0 0 1 3.232 0L12 4.78l.106-.107A2.276 2.276 0 0 1 16 6.28Z"></path>
   <path d="m18 20 3.824-3.824a.6.6 0 0 0 .176-.424V10.5a1.5 1.5 0 0 0-3 0V15"></path>
   <path d="m18 15.996.858-.858a.484.484 0 0 0-.126-.776l-.443-.221a2 2 0 0 0-2.308.374l-.895.895a2 2 0 0 0-.586 1.415v3.171"></path>
   <path d="m6 20-3.824-3.824A.6.6 0 0 1 2 15.752V10.5a1.5 1.5 0 1 1 3 0V15"></path>
   <path d="m6 15.996-.858-.858a.485.485 0 0 1 .126-.776l.443-.221a2 2 0 0 1 2.308.374l.895.895a2 2 0 0 1 .586 1.415v3.171"></path>
</svg>