<svg width="32" height="32" fill="currentColor" viewBox="0 0 24 24" xmlns="http://www.w3.org/2000/svg">
   <path d="m5 13.996-.592-.46A.75.75 0 0 0 5 14.746v-.75Zm14 0v.75a.75.75 0 0 0 .592-1.21l-.592.46Zm-14 .75h14v-1.5H5v1.5Zm5.619-9.195-6.211 7.985 1.184.92 6.21-7.984-1.183-.921Zm8.973 7.985-6.21-7.985-1.185.92 6.211 7.986 1.184-.921Zm-7.79-7.064a.25.25 0 0 1 .395 0l1.184-.921a1.749 1.749 0 0 0-2.762 0l1.184.92Z"></path>
   <path d="M5 17.25a.75.75 0 0 0 0 1.5v-1.5Zm14 1.5a.75.75 0 0 0 0-1.5v1.5Zm-14 0h14v-1.5H5v1.5Z"></path>
</svg>