<svg width="32" height="32" fill="none" stroke="currentColor" stroke-linecap="round" stroke-linejoin="round" stroke-width="1" viewBox="0 0 24 24" xmlns="http://www.w3.org/2000/svg">
   <path d="M7 19.4V4.6a.6.6 0 0 1 .6-.6h8.8a.6.6 0 0 1 .6.6v14.8a.6.6 0 0 1-.6.6H7.6a.6.6 0 0 1-.6-.6Z"></path>
   <path d="M14 20v2.5"></path>
   <path d="M10 20v2.5"></path>
   <path d="M14 4V1.5"></path>
   <path d="M10 4V1.5"></path>
   <path d="M7 12H4.5"></path>
   <path d="M19.5 12H17"></path>
   <path d="M7 6.5H4.5"></path>
   <path d="M19.5 6.5H17"></path>
   <path d="M7 17.5H4.5"></path>
   <path d="M19.5 17.5H17"></path>
</svg>