<svg width="32" height="32" fill="none" stroke="currentColor" stroke-linecap="round" stroke-linejoin="round" stroke-width="1" viewBox="0 0 24 24" xmlns="http://www.w3.org/2000/svg">
   <path d="m22 5-2 4-2-4"></path>
   <path d="M16 5h-2v4h2"></path>
   <path d="M14 7h1.5"></path>
   <path d="M6 9v10a2 2 0 0 0 2 2h9a2 2 0 0 0 2-2v-5"></path>
   <path d="M9 5.6V7a2 2 0 0 1-2 2H5a2 2 0 0 1-2-2V5.6a.6.6 0 0 1 .6-.6h4.8a.6.6 0 0 1 .6.6Z"></path>
   <path d="M4 5V3"></path>
   <path d="M8 5V3"></path>
</svg>