<svg width="32" height="32" fill="none" stroke="currentColor" stroke-linecap="round" stroke-linejoin="round" stroke-width="1" viewBox="0 0 24 24" xmlns="http://www.w3.org/2000/svg">
   <path d="M10 13.156v7.846"></path>
   <path d="M15 8.383v2.77a2 2 0 0 1-2 2H7a2 2 0 0 1-2-2v-2.77a2 2 0 0 1 2-2h6a2 2 0 0 1 2 2Z"></path>
   <path d="M13.333 6.385V3"></path>
   <path d="M6.667 6.385V3"></path>
   <path d="m17.242 19.246 2.122 2.122m-4.243 0 2.121-2.122-2.12 2.122Zm2.121-2.122 2.122-2.121-2.122 2.121Zm0 0-2.12-2.121 2.12 2.121Z"></path>
</svg>