<svg width="32" height="32" fill="none" stroke="currentColor" stroke-linecap="round" stroke-linejoin="round" stroke-width="1" viewBox="0 0 24 24" xmlns="http://www.w3.org/2000/svg">
   <path d="M10.5 15h-.9a.6.6 0 0 0-.6.6v4.8a.6.6 0 0 0 .6.6h10.8a.6.6 0 0 0 .6-.6V9.6a.6.6 0 0 0-.6-.6h-4.8a.6.6 0 0 0-.6.6v.9"></path>
   <path d="M13.5 15h.9a.6.6 0 0 0 .6-.6v-.9"></path>
   <path d="M9 13.5v.9a.6.6 0 0 1-.6.6H3.6a.6.6 0 0 1-.6-.6V3.6a.6.6 0 0 1 .6-.6h10.8a.6.6 0 0 1 .6.6v4.8a.6.6 0 0 1-.6.6h-.9"></path>
   <path d="M9 10.5v-.9a.6.6 0 0 1 .6-.6h.9"></path>
</svg>