<svg width="32" height="32" fill="none" stroke="currentColor" stroke-linecap="round" stroke-linejoin="round" stroke-width="1" viewBox="0 0 24 24" xmlns="http://www.w3.org/2000/svg">
   <path d="M7 3H5a2 2 0 0 0-2 2v2"></path>
   <path d="M17 3h2a2 2 0 0 1 2 2v2"></path>
   <path d="M16 8v2"></path>
   <path d="M8 8v2"></path>
   <path d="M9 16s1 1 3 1 3-1 3-1"></path>
   <path d="M12 8v5h-1"></path>
   <path d="M7 21H5a2 2 0 0 1-2-2v-2"></path>
   <path d="M17 21h2a2 2 0 0 0 2-2v-2"></path>
</svg>