<svg width="32" height="32" fill="none" stroke="currentColor" stroke-linecap="round" stroke-linejoin="round" stroke-width="1" viewBox="0 0 24 24" xmlns="http://www.w3.org/2000/svg">
   <path d="M14 21.8c-.646.131-1.315.2-2 .2-5.523 0-10-4.477-10-10S6.477 2 12 2s10 4.477 10 10c0 .254-.01.506-.028.755"></path>
   <path d="M21.167 18.5h-3.334 3.334Zm0 0h.233a.6.6 0 0 1 .6.6v2.3a.6.6 0 0 1-.6.6h-3.8a.6.6 0 0 1-.6-.6v-2.3a.6.6 0 0 1 .6-.6h3.567Zm0 0v-1.75c0-.583-.334-1.75-1.667-1.75s-1.667 1.167-1.667 1.75v1.75h3.334Z"></path>
   <path d="M9.223 7.734A5.506 5.506 0 0 1 12 7c2.28 0 4.203 1.33 4.805 3.15"></path>
   <path d="M7 16v-4.64c0-.51.1-1 .285-1.454"></path>
   <path d="M17 14v-1.185"></path>
   <path d="M14 17v-5.147C14 10.83 13.105 10 12 10s-2 .83-2 1.853v.794"></path>
   <path d="M10 17v-2.177"></path>
</svg>