<svg width="32" height="32" fill="none" stroke="currentColor" stroke-linecap="round" stroke-linejoin="round" stroke-width="1" viewBox="0 0 24 24" xmlns="http://www.w3.org/2000/svg">
   <path d="M7 3.516A9.004 9.004 0 0 1 20.648 8.5"></path>
   <path d="M21 22v-8"></path>
   <path d="M3 22V11c0-1.052.18-2.062.512-3"></path>
   <path d="M18 22V11.3C18 7.82 15.314 5 12 5s-6 2.82-6 6.3V14"></path>
   <path d="M6 22v-4"></path>
   <path d="M9 22V11.15C9 9.41 10.343 8 12 8c.865 0 1.645.385 2.193 1"></path>
   <path d="M15 22v-8"></path>
   <path d="M12 22v-3.5"></path>
   <path d="M12 11v3"></path>
</svg>