<svg width="32" height="32" fill="none" stroke="currentColor" stroke-linecap="round" stroke-linejoin="round" stroke-width="1" viewBox="0 0 24 24" xmlns="http://www.w3.org/2000/svg">
   <path d="M14.223 2.734A5.507 5.507 0 0 1 17 2c2.28 0 4.203 1.33 4.805 3.15"></path>
   <path d="M12 11V6.36c0-.51.1-.999.284-1.454"></path>
   <path d="M22 11V7.815"></path>
   <path d="M19 12V6.853C19 5.83 18.105 5 17 5s-2 .83-2 1.853v.794"></path>
   <path d="M15 12V9.823"></path>
   <path d="M8 17.011 8.01 17"></path>
   <path d="M8 5H3.6a.6.6 0 0 0-.6.6v14.8a.6.6 0 0 0 .6.6h8.8a.6.6 0 0 0 .6-.6V16"></path>
</svg>