<svg width="32" height="32" fill="none" stroke="currentColor" stroke-linecap="round" stroke-linejoin="round" stroke-width="1" viewBox="0 0 24 24" xmlns="http://www.w3.org/2000/svg">
   <path d="m7.585 7.875-.305 3.723c-.063.703.399 1.33 1.032 1.401.058.006.058.006.115.007L11 12.999l-.451 7.683c-.012.21.264.295.37.115.678-1.136 2.063-3.464 3.328-5.605"></path>
   <path d="M8.5 3h5c.127 0 .254.023.375.07.602.23.922.958.715 1.627L13.1 8.802h2.748c.203 0 .402.06.578.173.55.356.738 1.14.418 1.75-.069.137-.242.444-.49.873"></path>
   <path d="m4 4 16 16"></path>
</svg>