<svg width="32" height="32" fill="none" stroke="currentColor" stroke-linecap="round" stroke-linejoin="round" stroke-width="1" viewBox="0 0 24 24" xmlns="http://www.w3.org/2000/svg">
   <path d="M18.5 15h-13"></path>
   <path d="M16 4H8"></path>
   <path d="M9 4.5v5.76a2 2 0 0 1-.481 1.302L3.48 17.438A2 2 0 0 0 3 18.74V19a2 2 0 0 0 2 2h14a2 2 0 0 0 2-2v-.26a2 2 0 0 0-.482-1.302l-5.037-5.876A2 2 0 0 1 15 10.26V4.5"></path>
   <path d="M12 9.011 12.01 9"></path>
   <path d="M11 2.011 11.01 2"></path>
</svg>