<svg width="32" height="32" fill="none" stroke="currentColor" stroke-linecap="round" stroke-linejoin="round" stroke-width="1" viewBox="0 0 24 24" xmlns="http://www.w3.org/2000/svg">
   <path d="M12 15a3 3 0 1 0 0-6 3 3 0 0 0 0 6Z"></path>
   <path d="M13 9s1-2 1-4-2-4-2-4-2 2-2 4 1 4 1 4"></path>
   <path d="M9 11s-2-1-4-1-4 2-4 2 2 2 4 2 4-1 4-1"></path>
   <path d="M13 15s1 2 1 4-2 4-2 4-2-2-2-4 1-4 1-4"></path>
   <path d="M15 11s2-1 4-1 4 2 4 2-2 2-4 2-4-1-4-1"></path>
   <path d="M10.586 9.168s-.707-2.12-2.122-3.535C7.05 4.219 4.222 4.219 4.222 4.219s0 2.828 1.414 4.242C7.05 9.876 9.17 10.583 9.17 10.583"></path>
   <path d="M9.171 13.414s-2.12.707-3.535 2.121c-1.414 1.415-1.414 4.243-1.414 4.243s2.828 0 4.242-1.414c1.415-1.414 2.122-3.536 2.122-3.536"></path>
   <path d="M14.828 13.414s2.122.707 3.536 2.121c1.414 1.415 1.414 4.243 1.414 4.243s-2.828 0-4.243-1.414c-1.414-1.414-2.12-3.536-2.12-3.536"></path>
   <path d="M13.414 9.168s.707-2.12 2.121-3.535c1.415-1.414 4.243-1.414 4.243-1.414s0 2.828-1.414 4.242c-1.414 1.415-3.536 2.122-3.536 2.122"></path>
</svg>