<svg width="32" height="32" fill="none" stroke="currentColor" stroke-linecap="round" stroke-linejoin="round" stroke-width="1" viewBox="0 0 24 24" xmlns="http://www.w3.org/2000/svg">
   <path d="m13.415 10.582 1.414 1.414m-1.415-1.414-2.828 2.829m2.829-2.829 1.414-1.414m-1.415 1.414L12 9.168m-1.414 4.243-1.414 1.414m1.414-1.414-1.414-1.415m1.414 1.415L12 14.825"></path>
   <path d="M4.012 17.676a22.314 22.314 0 0 1 .104-3.665c.278-2.41 1.054-5.084 2.935-6.964 1.88-1.88 4.553-2.657 6.964-2.935a22.314 22.314 0 0 1 3.665-.104 2.413 2.413 0 0 1 2.308 2.309 22.312 22.312 0 0 1-.103 3.665c-.278 2.41-1.055 5.084-2.935 6.964-1.88 1.88-4.553 2.657-6.965 2.935-1.37.158-2.656.156-3.664.104a2.413 2.413 0 0 1-2.309-2.309Z"></path>
</svg>