<svg width="32" height="32" fill="none" stroke="currentColor" stroke-linecap="round" stroke-linejoin="round" stroke-width="1" viewBox="0 0 24 24" xmlns="http://www.w3.org/2000/svg">
   <path d="M20 12v9.4a.6.6 0 0 1-.6.6H4.6a.6.6 0 0 1-.6-.6V12"></path>
   <path d="M21.4 7H2.6a.6.6 0 0 0-.6.6v3.8a.6.6 0 0 0 .6.6h18.8a.6.6 0 0 0 .6-.6V7.6a.6.6 0 0 0-.6-.6Z"></path>
   <path d="M12 22V7"></path>
   <path d="M12 7H7.5a2.5 2.5 0 1 1 0-5C11 2 12 7 12 7Z"></path>
   <path d="M12 7h4.5a2.5 2.5 0 0 0 0-5C13 2 12 7 12 7Z"></path>
</svg>