<svg width="32" height="32" fill="none" stroke="currentColor" stroke-linecap="round" stroke-linejoin="round" stroke-width="1" viewBox="0 0 24 24" xmlns="http://www.w3.org/2000/svg">
   <path d="M2 15.004h10.5m-3.357-12L14.857 3l-5.714.004Zm0 0L2 15.004l7.143-12Zm0 0 4.902 9.496-4.902-9.496ZM14.857 3 5.575 21l9.282-18Zm0 0 5.356 9-5.356-9ZM5.575 21 2 15.004 5.575 21Zm0 0h6.429-6.429Z"></path>
   <path d="M22.666 17.667C22.047 16.097 20.634 15 18.99 15c-1.759 0-3.253 1.255-3.794 3"></path>
   <path d="M20.995 17.77H22.4a.6.6 0 0 0 .6-.6v-1.623"></path>
   <path d="M15.334 20.333C15.953 21.903 17.366 23 19.01 23c1.759 0 3.253-1.255 3.794-3"></path>
   <path d="M17.005 20.227H15.6a.6.6 0 0 0-.6.6v1.622"></path>
</svg>