<svg width="32" height="32" fill="none" stroke="currentColor" stroke-linecap="round" stroke-linejoin="round" stroke-width="1" viewBox="0 0 24 24" xmlns="http://www.w3.org/2000/svg">
   <path d="m16.992 16.996 2.122 2.122m-4.243 0 2.121-2.122-2.12 2.122Zm4.243-4.243-2.122 2.121 2.122-2.121Zm-2.122 2.121-2.12-2.121 2.12 2.121Z"></path>
   <path d="M4 9.4V4.6a.6.6 0 0 1 .6-.6h4.8a.6.6 0 0 1 .6.6v4.8a.6.6 0 0 1-.6.6H4.6a.6.6 0 0 1-.6-.6Z"></path>
   <path d="M4 19.4v-4.8a.6.6 0 0 1 .6-.6h4.8a.6.6 0 0 1 .6.6v4.8a.6.6 0 0 1-.6.6H4.6a.6.6 0 0 1-.6-.6Z"></path>
   <path d="M14 9.4V4.6a.6.6 0 0 1 .6-.6h4.8a.6.6 0 0 1 .6.6v4.8a.6.6 0 0 1-.6.6h-4.8a.6.6 0 0 1-.6-.6Z"></path>
</svg>