<svg width="32" height="32" fill="none" stroke="currentColor" stroke-linecap="round" stroke-linejoin="round" stroke-width="1" viewBox="0 0 24 24" xmlns="http://www.w3.org/2000/svg">
   <path d="M4 13.5V13c0-4.97 3.582-9 8-9s8 4.03 8 9v.5"></path>
   <path d="M2 17.442v-1.877a2 2 0 0 1 1.515-1.94L4 13.504l1.254-.314a.6.6 0 0 1 .746.582v5.463a.6.6 0 0 1-.746.582l-1.74-.434A2 2 0 0 1 2 17.442Z"></path>
   <path d="M22 17.442v-1.877a2 2 0 0 0-1.515-1.94L20 13.504l-1.255-.314a.6.6 0 0 0-.745.582v5.463a.6.6 0 0 0 .745.582l1.74-.434A2 2 0 0 0 22 17.442Z"></path>
</svg>