<svg width="32" height="32" fill="none" stroke="currentColor" stroke-linecap="round" stroke-linejoin="round" stroke-width="1" viewBox="0 0 24 24" xmlns="http://www.w3.org/2000/svg">
   <path d="M20 11a8 8 0 1 0-16 0"></path>
   <path d="M2 15.442v-1.877a2 2 0 0 1 1.515-1.94l1.74-.435a.6.6 0 0 1 .745.582v5.463a.6.6 0 0 1-.746.582l-1.74-.435A2 2 0 0 1 2 15.442Z"></path>
   <path d="M22 15.442v-1.877a2 2 0 0 0-1.515-1.94l-1.74-.435a.6.6 0 0 0-.745.582v5.463a.6.6 0 0 0 .745.582l1.74-.435A2 2 0 0 0 22 15.442Z"></path>
   <path d="M20 18v.5a2 2 0 0 1-2 2h-3.5"></path>
   <path d="M13.5 22h-3a1.5 1.5 0 0 1 0-3h3a1.5 1.5 0 0 1 0 3Z"></path>
</svg>