<svg width="32" height="32" fill="none" stroke="currentColor" stroke-linecap="round" stroke-linejoin="round" stroke-width="1" viewBox="0 0 24 24" xmlns="http://www.w3.org/2000/svg">
   <path d="M22 12c0-5.523-4.477-10-10-10S2 6.477 2 12s4.477 10 10 10"></path>
   <path d="M13 2.047s3 3.95 3 9.95"></path>
   <path d="M11 21.948s-3-3.95-3-9.95c0-6 3-9.951 3-9.951"></path>
   <path d="M2.63 15.5H12"></path>
   <path d="M2.63 8.5h18.74"></path>
   <path d="M21.88 17.92c.493.303.463 1.043-.046 1.1l-2.567.291-1.15 2.313c-.229.458-.934.234-1.05-.334l-1.256-6.116c-.098-.48.333-.782.75-.526l5.318 3.272Z" clip-rule="evenodd"></path>
</svg>