<svg width="32" height="32" fill="none" stroke="currentColor" stroke-linecap="round" stroke-linejoin="round" stroke-width="1" viewBox="0 0 24 24" xmlns="http://www.w3.org/2000/svg">
   <path d="M13.5 21h3m4.5-7.5v3-3Z"></path>
   <path d="M16.5 9H9.6a.6.6 0 0 0-.6.6v6.9"></path>
   <path d="M10.5 21h-.9a.6.6 0 0 1-.6-.6v-.9"></path>
   <path d="M21 19.5v.9a.6.6 0 0 1-.6.6h-.9"></path>
   <path d="M19.5 9h.9a.6.6 0 0 1 .6.6v.9"></path>
   <path d="M7.5 3h3M3 10.5v-3 3Z"></path>
   <path d="M7.5 15h6.9a.6.6 0 0 0 .6-.6V7.5"></path>
   <path d="M4.5 15h-.9a.6.6 0 0 1-.6-.6v-.9"></path>
   <path d="M3 4.5v-.9a.6.6 0 0 1 .6-.6h.9"></path>
   <path d="M13.5 3h.9a.6.6 0 0 1 .6.6v.9"></path>
</svg>