<svg width="32" height="32" fill="none" stroke="currentColor" stroke-linecap="round" stroke-linejoin="round" stroke-width="1" viewBox="0 0 24 24" xmlns="http://www.w3.org/2000/svg">
   <path d="m15.01 3-.01.011"></path>
   <path d="m11.01 3-.01.011"></path>
   <path d="M7.01 3 7 3.011"></path>
   <path d="M3.01 3 3 3.011"></path>
   <path d="M3.01 7 3 7.011"></path>
   <path d="m3.01 11-.01.011"></path>
   <path d="m3.01 15-.01.011"></path>
   <path d="M9 21.011 9.01 21"></path>
   <path d="m13 21.011.01-.011"></path>
   <path d="m17 21.011.01-.011"></path>
   <path d="m21 21.011.01-.011"></path>
   <path d="m21 17.011.01-.011"></path>
   <path d="m21 13.011.01-.011"></path>
   <path d="M21 9.011 21.01 9"></path>
   <path d="M9 17v-7a1 1 0 0 1 1-1h7"></path>
   <path d="M15 7v7a1 1 0 0 1-1 1H7"></path>
</svg>