<svg width="32" height="32" fill="none" stroke="currentColor" stroke-linecap="round" stroke-linejoin="round" stroke-width="1" viewBox="0 0 24 24" xmlns="http://www.w3.org/2000/svg">
   <path d="M12 18a6 6 0 1 0 0-12 6 6 0 0 0 0 12Z"></path>
   <path d="m12 12.002-3 5.197m9-5.197h-6 6ZM9 6.805l3 5.197-3-5.197Z"></path>
   <path stroke-dasharray="1 3" d="M12 19a7 7 0 1 0 0-14 7 7 0 0 0 0 14Z"></path>
   <path d="M12 22c5.523 0 10-4.477 10-10S17.523 2 12 2 2 6.477 2 12s4.477 10 10 10Z"></path>
   <path d="M12 15a3 3 0 1 0 0-6 3 3 0 0 0 0 6Z"></path>
</svg>