<svg width="32" height="32" fill="none" stroke="currentColor" stroke-linecap="round" stroke-linejoin="round" stroke-width="1" viewBox="0 0 24 24" xmlns="http://www.w3.org/2000/svg">
   <path d="M6 6h8"></path>
   <path d="M6 10h12"></path>
   <path d="M12 14h6"></path>
   <path d="M12 18h6"></path>
   <path d="M2 21.4V2.6a.6.6 0 0 1 .6-.6h15.652a.6.6 0 0 1 .424.176l3.148 3.148A.6.6 0 0 1 22 5.75V21.4a.6.6 0 0 1-.6.6H2.6a.6.6 0 0 1-.6-.6Z"></path>
   <path fill="currentColor" d="M18 5.4V2.354a.354.354 0 0 1 .604-.25l3.292 3.292a.353.353 0 0 1-.25.604H18.6a.6.6 0 0 1-.6-.6Z"></path>
   <path fill="currentColor" d="M6 18v-4h2v4H6Z"></path>
</svg>