<svg width="32" height="32" fill="none" stroke="currentColor" stroke-linecap="round" stroke-linejoin="round" stroke-width="1" viewBox="0 0 24 24" xmlns="http://www.w3.org/2000/svg">
   <path d="M20.8 14.22V8.11m0 6.11H3.653a.6.6 0 0 0-.577.437L1.72 19.454a2 2 0 0 0 1.925 2.544h16.711a2 2 0 0 0 1.925-2.544L20.8 14.22Z"></path>
   <path d="M3.2 14.222V4a2 2 0 0 1 2-2H12"></path>
   <path d="M11 19h2"></path>
   <path d="m17.657 4.828-2.829 2.829"></path>
   <path d="M20.485 4.828A2 2 0 1 1 17.657 2"></path>
   <path d="M14.828 10.485A2 2 0 0 0 12 7.655"></path>
</svg>