<svg width="32" height="32" fill="none" stroke="currentColor" stroke-linecap="round" stroke-linejoin="round" stroke-width="1" viewBox="0 0 24 24" xmlns="http://www.w3.org/2000/svg">
   <path d="m21 2-1 1"></path>
   <path d="m3 2 1 1"></path>
   <path d="m21 16-1-1"></path>
   <path d="m3 16 1-1"></path>
   <path d="M9 18h6"></path>
   <path d="M10 21h4"></path>
   <path d="M12 3C8 3 5.952 4.95 6 8c.023 1.487.5 2.5 1.5 3.5S9 13 9 15h6c0-2 .5-2.5 1.5-3.5h0c1-1 1.477-2.013 1.5-3.5.048-3.05-2-5-6-5Z"></path>
</svg>