<svg width="32" height="32" fill="none" stroke="currentColor" stroke-linecap="round" stroke-linejoin="round" stroke-width="1" viewBox="0 0 24 24" xmlns="http://www.w3.org/2000/svg">
   <path d="M4 19V5a2 2 0 0 1 2-2h13.4a.6.6 0 0 1 .6.6v13.114"></path>
   <path d="M14 10h-4m4 0h.4a.6.6 0 0 1 .6.6v2.8a.6.6 0 0 1-.6.6H9.6a.6.6 0 0 1-.6-.6v-2.8a.6.6 0 0 1 .6-.6H14Zm0 0V8c0-.667-.4-2-2-2s-2 1.333-2 2v2h4Z"></path>
   <path d="M6 17h14"></path>
   <path d="M6 21h14"></path>
   <path d="M6 21a2 2 0 1 1 0-4"></path>
</svg>