<svg width="32" height="32" fill="none" stroke="currentColor" stroke-linecap="round" stroke-linejoin="round" stroke-width="1" viewBox="0 0 24 24" xmlns="http://www.w3.org/2000/svg">
   <path d="M22 12.6v7.8a.6.6 0 0 1-.6.6h-7.8a.6.6 0 0 1-.6-.6v-7.8a.6.6 0 0 1 .6-.6h7.8a.6.6 0 0 1 .6.6Z"></path>
   <path d="m19.5 14.511.01-.011"></path>
   <path d="m13 18.2 3.5-1.2 5.5 2"></path>
   <path d="M22 9V6.6a.6.6 0 0 0-.6-.6h-8.678a.6.6 0 0 1-.39-.144L9.168 3.144A.6.6 0 0 0 8.778 3H2.6a.6.6 0 0 0-.6.6v14.8a.6.6 0 0 0 .6.6H10"></path>
   <path d="M2 10h8"></path>
</svg>