<svg width="32" height="32" fill="none" stroke="currentColor" stroke-linecap="round" stroke-linejoin="round" stroke-width="1" viewBox="0 0 24 24" xmlns="http://www.w3.org/2000/svg">
   <path fill="currentColor" stroke="none" d="M8.5 20h3l-1.723 3.447a1 1 0 0 1-.895.553h-.764a1 1 0 0 1-.894-1.447L8.5 20Z"></path>
   <path fill="currentColor" stroke="none" d="M15.5 20h-3l1.724 3.447a1 1 0 0 0 .894.553h.764a1 1 0 0 0 .894-1.447L15.5 20Z"></path>
   <path d="m14 16.011.01-.011"></path>
   <path d="m10 16.011.01-.011"></path>
   <path d="M22 12v3a5 5 0 0 1-5 5H7a5 5 0 0 1-5-5v-3C2 6.477 6.477 2 12 2s10 4.477 10 10Z"></path>
   <path d="M18 12v3a5 5 0 0 1-5 5h-2a5 5 0 0 1-5-5v-3a5 5 0 0 1 5-5h2a5 5 0 0 1 5 5Z"></path>
   <path d="M11.786 10h.428C13.2 10 14 10.8 14 11.786a.214.214 0 0 1-.214.214h-3.572a.214.214 0 0 1-.214-.214C10 10.8 10.8 10 11.786 10Z"></path>
</svg>