<svg width="32" height="32" fill="none" stroke="currentColor" stroke-linecap="round" stroke-linejoin="round" stroke-width="1" viewBox="0 0 24 24" xmlns="http://www.w3.org/2000/svg">
   <path d="M7 8.011 7.01 8"></path>
   <path d="M17 8.011 17.01 8"></path>
   <path d="M7 12.011 7.01 12"></path>
   <path d="m17 12.011.01-.011"></path>
   <path d="M7 16.011 7.01 16"></path>
   <path d="m17 16.011.01-.011"></path>
   <path d="M7 22v-2M7 2H3.6a.6.6 0 0 0-.6.6v18.8a.6.6 0 0 0 .6.6H7V2Zm0 0v2-2Zm0 0h10H7Zm10 0h3.4a.6.6 0 0 1 .6.6v18.8a.6.6 0 0 1-.6.6H17V2Zm0 0v2-2Zm0 20v-2 2Zm0 0H7h10Z"></path>
</svg>