<svg width="32" height="32" fill="none" stroke="currentColor" stroke-width="1" viewBox="0 0 24 24" xmlns="http://www.w3.org/2000/svg">
   <path d="M2 14.6v5.8a.6.6 0 0 0 .6.6h3.8a.6.6 0 0 0 .6-.6v-5.8a.6.6 0 0 0-.6-.6H2.6a.6.6 0 0 0-.6.6Z"></path>
   <path d="M17 9.1v5.8a.6.6 0 0 0 .6.6h3.8a.6.6 0 0 0 .6-.6V9.1a.6.6 0 0 0-.6-.6h-3.8a.6.6 0 0 0-.6.6Z"></path>
   <path d="M2 3.6v5.8a.6.6 0 0 0 .6.6h3.8a.6.6 0 0 0 .6-.6V3.6a.6.6 0 0 0-.6-.6H2.6a.6.6 0 0 0-.6.6Z"></path>
   <path d="M7 17.5h3.5a2 2 0 0 0 2-2v-7a2 2 0 0 0-2-2H7"></path>
   <path d="M12.5 12H17"></path>
</svg>