<svg width="32" height="32" fill="none" stroke="currentColor" stroke-width="1" viewBox="0 0 24 24" xmlns="http://www.w3.org/2000/svg">
   <path d="M9.4 22H3.6a.6.6 0 0 1-.6-.6v-3.8a.6.6 0 0 1 .6-.6h5.8a.6.6 0 0 1 .6.6v3.8a.6.6 0 0 1-.6.6Z"></path>
   <path d="M14.9 7H9.1a.6.6 0 0 1-.6-.6V2.6a.6.6 0 0 1 .6-.6h5.8a.6.6 0 0 1 .6.6v3.8a.6.6 0 0 1-.6.6Z"></path>
   <path d="M20.4 22h-5.8a.6.6 0 0 1-.6-.6v-3.8a.6.6 0 0 1 .6-.6h5.8a.6.6 0 0 1 .6.6v3.8a.6.6 0 0 1-.6.6Z"></path>
   <path d="M6.5 17v-3.5a2 2 0 0 1 2-2h7a2 2 0 0 1 2 2V17"></path>
   <path d="M12 11.5V7"></path>
</svg>