<svg width="32" height="32" fill="none" stroke="currentColor" stroke-linecap="round" stroke-linejoin="round" stroke-width="1" viewBox="0 0 24 24" xmlns="http://www.w3.org/2000/svg">
   <path d="M4.623 5.25A9.964 9.964 0 0 0 2 12.002c0 5.522 4.477 10 10 10a9.962 9.962 0 0 0 6.615-2.5"></path>
   <path d="M21.302 15.678A9.974 9.974 0 0 0 22 12c0-5.523-4.477-10-10-10-1.231 0-2.41.223-3.5.63"></path>
   <path d="M9 15c.644.86 1.843 1.35 3 1.391 1.114.04 2.19-.336 2.697-1.198"></path>
   <path d="M12 16.39v2.11"></path>
   <path d="M9.5 9.5c0 1.181.852 1.665 1.886 2"></path>
   <path d="M15 8.5c-.685-.685-1.891-1.161-3-1.191V5.5"></path>
   <path d="m3 3 18 18"></path>
</svg>