<svg width="32" height="32" fill="none" stroke="currentColor" stroke-linecap="round" stroke-linejoin="round" stroke-width="1" viewBox="0 0 24 24" xmlns="http://www.w3.org/2000/svg">
   <path d="M4 6h11"></path>
   <path d="M19 8V4"></path>
   <path d="M20 14h-1.4a.6.6 0 0 1-.6-.6v-.8a.6.6 0 0 1 .6-.6h.8a.6.6 0 0 0 .6-.6v-.8a.6.6 0 0 0-.6-.6H18"></path>
   <path d="M18 16h1.4a.6.6 0 0 1 .6.6v2.8a.6.6 0 0 1-.6.6H18"></path>
   <path d="M20 18h-2"></path>
   <path d="M4 12h11"></path>
   <path d="M4 18h11"></path>
</svg>