<svg width="32" height="32" fill="none" stroke="currentColor" stroke-linecap="round" stroke-linejoin="round" stroke-width="1" viewBox="0 0 24 24" xmlns="http://www.w3.org/2000/svg">
   <path d="m7.5 12.001-2.004 2.672a2 2 0 0 0 .125 2.552l3.784 4.128c.38.413.913.648 1.474.648h4.62c2.4 0 4-2 4-4V9.43"></path>
   <path d="M16.5 9.997v-.572c0-2.285 3-2.285 3 0"></path>
   <path d="M13.5 9.999V8.285c0-2.286 3-2.286 3 0v1.714"></path>
   <path d="M10.5 10.003v-2.5c0-2.285 3-2.285 3 0v2.5"></path>
   <path d="M10.5 10V3.499a1.5 1.5 0 1 0-3 .001V15"></path>
</svg>