<svg width="32" height="32" fill="none" stroke="currentColor" stroke-linecap="round" stroke-linejoin="round" stroke-width="1" viewBox="0 0 24 24" xmlns="http://www.w3.org/2000/svg">
   <path d="m8 14.572-1.823-1.736a1.558 1.558 0 0 0-2.212 2.195l5.942 6.338c.379.403.906.632 1.459.632H16c2.4 0 4-2 4-4V9.43"></path>
   <path d="M17 9.997v-.572c0-2.285 3-2.285 3 0"></path>
   <path d="M14 9.999V8.285c0-2.286 3-2.286 3 0v1.714"></path>
   <path d="M11 10.003v-2.5c0-2.285 3-2.285 3 0v2.5"></path>
   <path d="M8 14.571V3.5a1.5 1.5 0 0 1 3-.001V10"></path>
</svg>