<svg width="32" height="32" fill="none" stroke="currentColor" stroke-linecap="round" stroke-linejoin="round" stroke-width="1" viewBox="0 0 24 24" xmlns="http://www.w3.org/2000/svg">
   <path d="M20.51 9.54a1.899 1.899 0 0 1-1 1.09A7 7 0 0 0 15.37 17c.001.47.048.939.14 1.4a2.16 2.16 0 0 1-.31 1.65 1.79 1.79 0 0 1-1.21.8 9 9 0 0 1-10.62-9.13A9.05 9.05 0 0 1 11.85 3h.51a9 9 0 0 1 8.06 5 2 2 0 0 1 .09 1.52v.02Z"></path>
   <path d="M8 16.011 8.01 16"></path>
   <path d="M6 12.011 6.01 12"></path>
   <path d="M8 8.011 8.01 8"></path>
   <path d="M12 6.011 12.01 6"></path>
   <path d="M16 8.011 16.01 8"></path>
</svg>