<svg width="32" height="32" fill="none" stroke="currentColor" stroke-linecap="round" stroke-linejoin="round" stroke-width="1" viewBox="0 0 24 24" xmlns="http://www.w3.org/2000/svg">
   <path d="m17.242 18.246 2.122 2.122m-4.243 0 2.121-2.122-2.12 2.122Zm2.121-2.122 2.122-2.121-2.122 2.121Zm0 0-2.12-2.121 2.12 2.121Z"></path>
   <path d="M21 13V8a2 2 0 0 0-2-2H5a2 2 0 0 0-2 2v6a2 2 0 0 0 2 2h6"></path>
   <path d="m12 11.011.01-.011"></path>
   <path d="m16 11.011.01-.011"></path>
   <path d="M8 11.011 8.01 11"></path>
</svg>