<svg width="32" height="32" fill="none" stroke="currentColor" stroke-linecap="round" stroke-linejoin="round" stroke-width="1" viewBox="0 0 24 24" xmlns="http://www.w3.org/2000/svg">
   <path d="M22 7V5a2 2 0 0 0-2-2H4a2 2 0 0 0-2 2v14a2 2 0 0 0 2 2h16a2 2 0 0 0 2-2v-2"></path>
   <path d="M2 12h4"></path>
   <path d="M6 3v18"></path>
   <path d="M19.25 12H11"></path>
   <path d="m18.7 12-.825 3h-1.65"></path>
   <path d="m17.6 12-1.1-3h-1.925"></path>
   <path d="M22 11.996a1.37 1.37 0 0 0-1.375-1.363c-.76 0-1.375.61-1.375 1.363a1.37 1.37 0 0 0 1.375 1.364c.76 0 1.375-.61 1.375-1.364Z"></path>
</svg>