<svg width="32" height="32" fill="none" stroke="currentColor" stroke-linecap="round" stroke-linejoin="round" stroke-width="1" viewBox="0 0 24 24" xmlns="http://www.w3.org/2000/svg">
   <path d="m19.243 5.246 2.122 2.122m-4.243 0 2.121-2.122-2.12 2.122Zm4.243-4.243-2.122 2.121 2.122-2.121Zm-2.122 2.121-2.12-2.121 2.12 2.121Z"></path>
   <path d="M18.119 14.702 14 15.5c-2.781-1.396-4.5-3-5.5-5.5l.77-4.13L7.815 2H4.064c-1.128 0-2.016.932-1.847 2.047.42 2.783 1.66 7.83 5.283 11.453 3.806 3.805 9.286 5.456 12.302 6.113 1.165.253 2.198-.655 2.198-1.848v-3.584l-3.881-1.479Z"></path>
</svg>