<svg width="32" height="32" fill="none" stroke="currentColor" stroke-linecap="round" stroke-linejoin="round" stroke-width="1" viewBox="0 0 24 24" xmlns="http://www.w3.org/2000/svg">
   <path d="M17.571 18H20.4a.6.6 0 0 0 .6-.6V11a4 4 0 0 0-4-4H7a4 4 0 0 0-4 4v6.4a.6.6 0 0 0 .6.6h2.829"></path>
   <path d="M8 7V3.6a.6.6 0 0 1 .6-.6h6.8a.6.6 0 0 1 .6.6V7"></path>
   <path d="M6.098 20.315 6.428 18l.499-3.485A.6.6 0 0 1 7.52 14h8.96a.6.6 0 0 1 .594.515L17.57 18l.331 2.315a.6.6 0 0 1-.594.685H6.692a.6.6 0 0 1-.594-.685Z"></path>
   <path d="m17 10.011.01-.011"></path>
</svg>