<svg width="32" height="32" fill="none" stroke="currentColor" stroke-linecap="round" stroke-linejoin="round" stroke-width="1" viewBox="0 0 24 24" xmlns="http://www.w3.org/2000/svg">
   <path d="M4 14v4.4a.6.6 0 0 0 .6.6H10"></path>
   <path d="M19 14v4.4a.6.6 0 0 1-.6.6H14"></path>
   <path d="M14 5h4.4a.6.6 0 0 1 .6.6V10"></path>
   <path d="M4 10V5.6a.6.6 0 0 1 .6-.6H10"></path>
   <path d="M14 19v1a2 2 0 1 1-4 0v-1"></path>
   <path d="M4 10h1a2 2 0 1 1 0 4H4"></path>
   <path d="M19 10h1a2 2 0 1 1 0 4h-1"></path>
   <path d="M14 5V4a2 2 0 1 0-4 0v1"></path>
</svg>