<svg width="32" height="32" fill="none" stroke="currentColor" stroke-linecap="round" stroke-linejoin="round" stroke-width="1" viewBox="0 0 24 24" xmlns="http://www.w3.org/2000/svg">
   <path d="M15 12v3"></path>
   <path d="M12 3v3"></path>
   <path d="M18 12v3"></path>
   <path d="M12 18h9"></path>
   <path d="M18 21h3"></path>
   <path d="M6 12h3"></path>
   <path d="M6 6.011 6.01 6"></path>
   <path d="m12 12.011.01-.011"></path>
   <path d="M3 12.011 3.01 12"></path>
   <path d="M12 9.011 12.01 9"></path>
   <path d="m12 15.011.01-.011"></path>
   <path d="m15 21.011.01-.011"></path>
   <path d="m12 21.011.01-.011"></path>
   <path d="m21 12.011.01-.011"></path>
   <path d="m21 15.011.01-.011"></path>
   <path d="M18 6.011 18.01 6"></path>
   <path d="M9 3.6v4.8a.6.6 0 0 1-.6.6H3.6a.6.6 0 0 1-.6-.6V3.6a.6.6 0 0 1 .6-.6h4.8a.6.6 0 0 1 .6.6Z"></path>
   <path d="M21 3.6v4.8a.6.6 0 0 1-.6.6h-4.8a.6.6 0 0 1-.6-.6V3.6a.6.6 0 0 1 .6-.6h4.8a.6.6 0 0 1 .6.6Z"></path>
   <path d="M6 18.011 6.01 18"></path>
   <path d="M9 15.6v4.8a.6.6 0 0 1-.6.6H3.6a.6.6 0 0 1-.6-.6v-4.8a.6.6 0 0 1 .6-.6h4.8a.6.6 0 0 1 .6.6Z"></path>
</svg>