<svg width="32" height="32" fill="none" stroke="currentColor" stroke-linecap="round" stroke-linejoin="round" stroke-width="1" viewBox="0 0 24 24" xmlns="http://www.w3.org/2000/svg">
   <path d="M3 20.29V5a2 2 0 0 1 2-2h14a2 2 0 0 1 2 2v10a2 2 0 0 1-2 2H7.961a2 2 0 0 0-1.561.75l-2.331 2.914A.6.6 0 0 1 3 20.29Z"></path>
   <path d="M10.5 10h-2a1 1 0 0 1-1-1V8a1 1 0 0 1 1-1h1a1 1 0 0 1 1 1v2Z"></path>
   <path d="M16.5 10h-2a1 1 0 0 1-1-1V8a1 1 0 0 1 1-1h1a1 1 0 0 1 1 1v2Z"></path>
   <path d="M16.5 10c0 1-1 2-2 3"></path>
   <path d="M10.5 10c0 1-1 2-2 3"></path>
</svg>