<svg width="32" height="32" fill="none" stroke="currentColor" stroke-linecap="round" stroke-linejoin="round" stroke-width="1" viewBox="0 0 24 24" xmlns="http://www.w3.org/2000/svg">
   <path d="M12 22c5.523 0 10-4.477 10-10S17.523 2 12 2 2 6.477 2 12s4.477 10 10 10Z"></path>
   <path d="M16.583 9.667C15.81 8.097 14.043 7 11.988 7 9.388 7 7.25 8.754 7 11"></path>
   <path d="M14.494 9.722H16.4a.6.6 0 0 0 .6-.6V7.5"></path>
   <path d="M7.417 13.667C8.19 15.629 9.957 17 12.012 17c2.6 0 4.736-2.193 4.988-5"></path>
   <path d="M9.506 13.625H7.6a.6.6 0 0 0-.6.6v2.178"></path>
</svg>