<svg width="32" height="32" fill="none" stroke="currentColor" stroke-linecap="round" stroke-linejoin="round" stroke-width="1" viewBox="0 0 24 24" xmlns="http://www.w3.org/2000/svg">
   <path d="m17.5 11.997 2.004 2.672a2 2 0 0 1-.126 2.551l-3.784 4.128a1.998 1.998 0 0 1-1.473.649H9.5c-2.358 0-3.622-2.575-3.982-3.93a.55.55 0 0 1-.018-.143V9.425c0-2.285 3-2.285 3 0v.572"></path>
   <path d="M11.5 9.999V8.285c0-2.286-3-2.286-3 0v1.714"></path>
   <path d="M14.5 10.003v-2.5c0-2.285-3-2.285-3 0v2.5"></path>
   <path d="M14.5 10V3.499a1.5 1.5 0 1 1 3 .001V15"></path>
   <path d="M17.563 6.5h2.062C20.5 6.5 21 6.078 21 5.25 21 4.422 20.5 4 19.625 4H12.25C11.56 4 11 4.56 11 5.25v.25a1 1 0 0 0 1 1"></path>
</svg>