<svg width="32" height="32" fill="none" stroke="currentColor" stroke-linecap="round" stroke-linejoin="round" stroke-width="1" viewBox="0 0 24 24" xmlns="http://www.w3.org/2000/svg">
   <path d="m19 18.996 2.122 2.122m-4.243 0L19 18.996l-2.121 2.122Zm4.243-4.243L19 18.996l2.122-2.121ZM19 18.996l-2.121-2.121L19 18.996Z"></path>
   <path d="M13 21H3.6a.6.6 0 0 1-.6-.6V3.6a.6.6 0 0 1 .6-.6h16.8a.6.6 0 0 1 .6.6V13"></path>
   <path d="M9.898 8.51A.6.6 0 0 0 9 9.03v5.933a.6.6 0 0 0 .898.52l5.19-2.965a.6.6 0 0 0 0-1.042L9.898 8.51Z"></path>
</svg>