<svg width="32" height="32" fill="none" stroke="currentColor" stroke-linecap="round" stroke-linejoin="round" stroke-width="1" viewBox="0 0 24 24" xmlns="http://www.w3.org/2000/svg">
   <path d="M19 15H5"></path>
   <path d="M16 4H8"></path>
   <path d="M15 4.5v4.253c0 .763.445 1.445 1.078 1.871C18.287 12.11 20 14.617 20 17.462c0 .812-.114 1.596-.325 2.338-.215.75-.945 1.2-1.726 1.2H6.051c-.78 0-1.511-.45-1.726-1.2A8.505 8.505 0 0 1 4 17.462c0-2.845 1.713-5.353 3.922-6.838C8.555 10.198 9 9.516 9 8.754V4.5"></path>
   <path d="M13 7.011 13.01 7"></path>
   <path d="M11 2.011 11.01 2"></path>
</svg>