<svg width="32" height="32" fill="none" stroke="currentColor" stroke-linecap="round" stroke-linejoin="round" stroke-width="1" viewBox="0 0 24 24" xmlns="http://www.w3.org/2000/svg">
   <path d="m10.585 10.582 2.829 2.829m-2.829-2.829 6.364-3.535-3.535 6.364-2.829-2.829Zm0 0L7.05 16.946l6.364-3.535-2.829-2.829Z"></path>
   <path d="M12 22c5.523 0 10-4.477 10-10S17.523 2 12 2 2 6.477 2 12s4.477 10 10 10Z"></path>
   <path d="M19 12h-1"></path>
   <path d="M6 12H5"></path>
   <path d="M12 5v1"></path>
   <path d="M12 18v1"></path>
   <path d="m7.05 7.047.707.707"></path>
   <path d="m16.243 16.242.707.707"></path>
</svg>