<svg width="32" height="32" fill="none" stroke="currentColor" stroke-linecap="round" stroke-linejoin="round" stroke-width="1" viewBox="0 0 24 24" xmlns="http://www.w3.org/2000/svg">
   <path d="M3 7.5V5a2 2 0 0 1 2-2h11.172a2 2 0 0 1 1.414.586l2.828 2.828A2 2 0 0 1 21 7.828V19a2 2 0 0 1-2 2H5a2 2 0 0 1-2-2v-2.5"></path>
   <path d="M6 21v-4"></path>
   <path d="M18 21v-7.4a.6.6 0 0 0-.6-.6H15"></path>
   <path d="M16 3v5.4a.6.6 0 0 1-.6.6h-1.9"></path>
   <path d="M8 3v3"></path>
   <path d="m12 12-3 3m-8-3h11H1Zm11 0L9 9l3 3Z"></path>
</svg>