<svg width="32" height="32" fill="none" stroke="currentColor" stroke-linecap="round" stroke-linejoin="round" stroke-width="1" viewBox="0 0 24 24" xmlns="http://www.w3.org/2000/svg">
   <path d="M11 13.6V21H3.6a.6.6 0 0 1-.6-.6V13h7.4a.6.6 0 0 1 .6.6Z"></path>
   <path d="M11 21h3"></path>
   <path d="M3 13v-3"></path>
   <path d="M6 3H3.6a.6.6 0 0 0-.6.6V6"></path>
   <path d="M14 3h-4"></path>
   <path d="M21 10v4"></path>
   <path d="M18 3h2.4a.6.6 0 0 1 .6.6V6"></path>
   <path d="M18 21h2.4a.6.6 0 0 0 .6-.6V18"></path>
   <path d="M11 10h3v3"></path>
</svg>