<svg width="32" height="32" fill="none" stroke="currentColor" stroke-linecap="round" stroke-linejoin="round" stroke-width="1" viewBox="0 0 24 24" xmlns="http://www.w3.org/2000/svg">
   <path d="M9 6.6v1.8a.6.6 0 0 1-.6.6H6.6a.6.6 0 0 1-.6-.6V6.6a.6.6 0 0 1 .6-.6h1.8a.6.6 0 0 1 .6.6Z"></path>
   <path d="M6 12h3"></path>
   <path d="M15 12v3"></path>
   <path d="M12 18h3"></path>
   <path d="m12 12.011.01-.011"></path>
   <path d="m18 12.011.01-.011"></path>
   <path d="m12 15.011.01-.011"></path>
   <path d="m18 15.011.01-.011"></path>
   <path d="m18 18.011.01-.011"></path>
   <path d="M12 9.011 12.01 9"></path>
   <path d="M12 6.011 12.01 6"></path>
   <path d="M9 15.6v1.8a.6.6 0 0 1-.6.6H6.6a.6.6 0 0 1-.6-.6v-1.8a.6.6 0 0 1 .6-.6h1.8a.6.6 0 0 1 .6.6Z"></path>
   <path d="M18 6.6v1.8a.6.6 0 0 1-.6.6h-1.8a.6.6 0 0 1-.6-.6V6.6a.6.6 0 0 1 .6-.6h1.8a.6.6 0 0 1 .6.6Z"></path>
   <path d="M18 3h3v3"></path>
   <path d="M18 21h3v-3"></path>
   <path d="M6 3H3v3"></path>
   <path d="M6 21H3v-3"></path>
</svg>