<svg width="32" height="32" fill="none" stroke="currentColor" stroke-linecap="round" stroke-linejoin="round" stroke-width="1" viewBox="0 0 24 24" xmlns="http://www.w3.org/2000/svg">
   <path d="M11.607 2.342a.6.6 0 0 1 .787 0l1.948 1.693a.6.6 0 0 0 .446.145l2.57-.224a.6.6 0 0 1 .638.462l.58 2.515a.6.6 0 0 0 .276.379l2.212 1.33a.6.6 0 0 1 .243.748L20.3 11.766a.6.6 0 0 0 0 .469l1.007 2.376a.6.6 0 0 1-.243.748l-2.212 1.33a.6.6 0 0 0-.275.38l-.581 2.514a.6.6 0 0 1-.637.462l-2.571-.224a.6.6 0 0 0-.446.145l-1.948 1.693a.6.6 0 0 1-.787 0l-1.949-1.693a.6.6 0 0 0-.445-.145l-2.571.224a.6.6 0 0 1-.637-.462l-.581-2.515a.6.6 0 0 0-.276-.379l-2.212-1.33a.6.6 0 0 1-.243-.748l1.008-2.376a.6.6 0 0 0 0-.469L2.693 9.39a.6.6 0 0 1 .243-.748l2.212-1.33a.6.6 0 0 0 .276-.38l.581-2.514a.6.6 0 0 1 .637-.462l2.57.224a.6.6 0 0 0 .446-.145l1.949-1.693Z"></path>
   <path d="m9 13 2 2 5-5"></path>
</svg>