<svg width="32" height="32" fill="none" stroke="currentColor" stroke-width="1" viewBox="0 0 24 24" xmlns="http://www.w3.org/2000/svg">
   <path d="M3.06 5.655A.6.6 0 0 1 3.658 5h16.684a.6.6 0 0 1 .598.655l-1.176 12.8a.6.6 0 0 1-.597.545h-4.152a.6.6 0 0 1-.574-.424l-1.867-6.102c-.174-.566-.974-.566-1.148 0L9.56 18.576a.6.6 0 0 1-.574.424H4.833a.6.6 0 0 1-.597-.545L3.643 12 3.06 5.655Z"></path>
   <path d="M4 9.5h1.5a2 2 0 0 0 2-2V5"></path>
   <path d="M20.5 9.5h-2a2 2 0 0 1-2-2V5"></path>
</svg>