<svg width="32" height="32" fill="none" stroke="currentColor" stroke-linecap="round" stroke-linejoin="round" stroke-width="1" viewBox="0 0 24 24" xmlns="http://www.w3.org/2000/svg">
   <path d="M18 19v3"></path>
   <path d="M18 16c0-1-1-2-3-2h-1a3 3 0 0 1-3-3V8.5A2.5 2.5 0 0 1 13.5 6h.5"></path>
   <path d="M22 16c0-4.5-2-5.5-4-6 2-.5 4-1 4-4s-2.5-4-4-4"></path>
   <path d="M22 19v3"></path>
   <path d="M13.4 19H2.6a.6.6 0 0 0-.6.6v1.8a.6.6 0 0 0 .6.6h10.8a.6.6 0 0 0 .6-.6v-1.8a.6.6 0 0 0-.6-.6Z"></path>
</svg>