<svg width="32" height="32" fill="none" stroke="currentColor" stroke-linecap="round" stroke-linejoin="round" stroke-width="1" viewBox="0 0 24 24" xmlns="http://www.w3.org/2000/svg">
   <path d="m17.5 9 .5-3.5M3 7l3.5 2L3 7Zm18 10-3.5-2 3.5 2Zm-9-5L6.5 9l5.5 3Zm0 0-5.5 3 5.5-3Zm0 0V5v7Zm0 0v6.5V12Zm0 0 5.5 3-5.5-3Zm0 0 5.5-3-5.5 3Zm0-10v3-3Zm0 20v-3.5V22Zm9-15-3.5 2L21 7ZM3 17l3.5-2L3 17Zm3.5-8L3 10l3.5-1Zm0 0L6 5.5 6.5 9Zm0 6L3 14l3.5 1Zm0 0L6 18.5l.5-3.5ZM12 5 9.5 4 12 5Zm0 0 2.5-1L12 5Zm0 13.5 2.5 1.5-2.5-1.5Zm0 0L9.5 20l2.5-1.5Zm5.5-3.5.5 3.5-.5-3.5Zm0 0 3.5-1-3.5 1Zm0-6 3.5 1-3.5-1Z"></path>
</svg>