<svg width="32" height="32" fill="none" stroke="currentColor" stroke-linecap="round" stroke-linejoin="round" stroke-width="1" viewBox="0 0 24 24" xmlns="http://www.w3.org/2000/svg">
   <path d="m12 8 3.804 2.764L12 8Zm0 0-3.804 2.764L12 8Zm0 0V5v3Zm3.804 2.764-1.453 4.472 1.453-4.472Zm0 0L18.5 9.5l-2.696 1.264Zm-1.453 4.472H9.65h4.702Zm0 0L16 17.5l-1.649-2.264Zm-4.702 0-1.453-4.472 1.453 4.472Zm0 0L8 17.5l1.649-2.264Zm-1.453-4.472L5.5 9.5l2.696 1.264ZM5.5 9.5 2.05 13 5.5 9.5Zm0 0-1-4.115 1 4.115Zm13 0 3.45 3.5-3.45-3.5Zm0 0 1-4.115-1 4.115ZM12 5 8.624 2.584 12 5Zm0 0 3.376-2.416L12 5ZM8 17.5 3.338 17 8 17.5Zm0 0 2.5 4.388L8 17.5Zm8 0 4.662-.5-4.662.5Zm0 0-2.5 4.388L16 17.5Zm6-5.5c0 5.523-4.477 10-10 10S2 17.523 2 12 6.477 2 12 2s10 4.477 10 10Z"></path>
</svg>