<svg width="32" height="32" fill="none" stroke="currentColor" stroke-linecap="round" stroke-linejoin="round" stroke-width="1" viewBox="0 0 24 24" xmlns="http://www.w3.org/2000/svg">
   <path d="m18 7.5.919.153a2 2 0 0 1 1.623 2.407l-.528 2.376a.602.602 0 0 0-.014.13V17.5c0 2-1.6 4-4 4H9.42a2 2 0 0 1-1.519-.698l-4.548-5.307a1.582 1.582 0 0 1 2.392-2.072L8 16v-3.5"></path>
   <path d="m9 5-.79.132a2 2 0 0 0-1.594 2.522L8 12.5"></path>
   <path d="M11 12.497 8.922 4.603a1.514 1.514 0 1 1 2.93-.77L14 11.996"></path>
   <path d="m17 12.5 1-5 .247-1.485a1.536 1.536 0 0 0-3.024-.535L14 12"></path>
</svg>