<svg width="32" height="32" fill="none" stroke="currentColor" stroke-linecap="round" stroke-linejoin="round" stroke-width="1" viewBox="0 0 24 24" xmlns="http://www.w3.org/2000/svg">
   <path d="M12.815 3.004a.911.911 0 0 0-1.63 0l-.495.998"></path>
   <path d="m12 18.68-1.572.822"></path>
   <path d="m5.671 19.367-.185 1.073c-.127.738.653 1.301 1.32.952l.847-.443"></path>
   <path d="m6.252 15.997.226-1.309-.695-.672"></path>
   <path d="m3.699 12.003-1.423-1.378a.902.902 0 0 1 .503-1.542l1.11-.161"></path>
   <path d="m7 8.466 1.587-.23.804-1.619"></path>
   <path d="m15.413 8.236-2.598-5.232A.899.899 0 0 0 12 2.5v16.178l5.195 2.716c.666.349 1.446-.214 1.319-.953l-.992-5.75 4.202-4.07a.902.902 0 0 0-.503-1.54l-5.808-.845Z"></path>
</svg>