<svg width="32" height="32" fill="none" stroke="currentColor" stroke-linecap="round" stroke-linejoin="round" stroke-width="1" viewBox="0 0 24 24" xmlns="http://www.w3.org/2000/svg">
   <path d="m13.806 5-.99-1.996a.911.911 0 0 0-1.631 0l-.495.998"></path>
   <path d="m15.01 7.43.402.809 1.452.21"></path>
   <path d="m19.77 8.867 1.452.211a.902.902 0 0 1 .502 1.542l-1.05 1.017"></path>
   <path d="m18.572 13.672-1.05 1.017.248 1.438"></path>
   <path d="m18.265 19 .248 1.437c.127.739-.652 1.302-1.319.953l-1.298-.679"></path>
   <path d="M10.428 19.502 12 18.68l1.298.679"></path>
   <path d="m5.671 19.367-.185 1.073c-.127.738.653 1.301 1.32.952l.847-.443"></path>
   <path d="m6.252 15.997.226-1.309-.695-.672"></path>
   <path d="m3.699 12.003-1.423-1.378a.902.902 0 0 1 .503-1.542l1.11-.161"></path>
   <path d="m7 8.466 1.587-.23.804-1.619"></path>
</svg>