<svg width="32" height="32" fill="none" stroke="currentColor" stroke-linecap="round" stroke-linejoin="round" stroke-width="1" viewBox="0 0 24 24" xmlns="http://www.w3.org/2000/svg">
   <path d="M3 15c2.483 0 4.345-3 4.345-3s1.862 3 4.345 3c2.482 0 4.965-3 4.965-3s2.483 3 4.345 3"></path>
   <path d="M3 20c2.483 0 4.345-3 4.345-3s1.862 3 4.345 3c2.482 0 4.965-3 4.965-3s2.483 3 4.345 3"></path>
   <path d="m5 10.502 4-2.5-1.187-1.484a1.262 1.262 0 0 1 1.954-1.595L14 10.002"></path>
   <path d="M16.5 8a2.5 2.5 0 1 0 0-5 2.5 2.5 0 0 0 0 5Z"></path>
</svg>