<svg width="32" height="32" fill="none" stroke="currentColor" stroke-linecap="round" stroke-linejoin="round" stroke-width="1" viewBox="0 0 24 24" xmlns="http://www.w3.org/2000/svg">
   <path d="M9.609 7h4.782A2.609 2.609 0 0 1 17 9.609a.391.391 0 0 1-.391.391H7.39A.391.391 0 0 1 7 9.609 2.609 2.609 0 0 1 9.609 7Z"></path>
   <path fill="currentColor" stroke="none" d="M7 19h3l-1.723 3.447a1 1 0 0 1-.895.553h-.764a1 1 0 0 1-.894-1.447L7 19Z"></path>
   <path fill="currentColor" stroke="none" d="M17 19h-3l1.724 3.447a1 1 0 0 0 .894.553h.764a1 1 0 0 0 .894-1.447L17 19Z"></path>
   <path d="M9 3h6a6 6 0 0 1 6 6v4a6 6 0 0 1-6 6H9a6 6 0 0 1-6-6V9a6 6 0 0 1 6-6Z"></path>
   <path d="m16 15.011.01-.011"></path>
   <path d="M8 15.011 8.01 15"></path>
</svg>