<svg width="32" height="32" fill="none" stroke="currentColor" stroke-linecap="round" stroke-linejoin="round" stroke-width="1" viewBox="0 0 24 24" xmlns="http://www.w3.org/2000/svg">
   <path fill="currentColor" stroke="none" d="M8 20h3l-1.723 3.447a1 1 0 0 1-.895.553h-.764a1 1 0 0 1-.894-1.447L8 20Z"></path>
   <path fill="currentColor" stroke="none" d="M16 20h-3l1.724 3.447a1 1 0 0 0 .894.553h.764a1 1 0 0 0 .894-1.447L16 20Z"></path>
   <path d="m15 16.011.01-.011"></path>
   <path d="M9 16.011 9.01 16"></path>
   <path d="M13 6h2a5 5 0 0 1 5 5v7a2 2 0 0 1-2 2H6a2 2 0 0 1-2-2v-7a5 5 0 0 1 5-5h4Zm0 0 1-4-1 4Zm1-4h3-3Zm0 0H7h7Zm2 9.786a.214.214 0 0 1-.214.214H8.214A.214.214 0 0 1 8 11.786C8 10.8 8.8 10 9.786 10h4.428C15.2 10 16 10.8 16 11.786Z"></path>
</svg>