<svg width="32" height="32" fill="none" stroke="currentColor" stroke-linecap="round" stroke-linejoin="round" stroke-width="1" viewBox="0 0 24 24" xmlns="http://www.w3.org/2000/svg">
   <path d="M19 3H5a2 2 0 0 0-2 2v14a2 2 0 0 0 2 2h14a2 2 0 0 0 2-2V5a2 2 0 0 0-2-2Z"></path>
   <path d="M10.4 6H6.6a.6.6 0 0 0-.6.6v10.8a.6.6 0 0 0 .6.6h3.8a.6.6 0 0 0 .6-.6V6.6a.6.6 0 0 0-.6-.6Z"></path>
   <path d="M17.4 6h-3.8a.6.6 0 0 0-.6.6v6.8a.6.6 0 0 0 .6.6h3.8a.6.6 0 0 0 .6-.6V6.6a.6.6 0 0 0-.6-.6Z"></path>
</svg>