<svg width="32" height="32" fill="none" stroke="currentColor" stroke-linecap="round" stroke-linejoin="round" stroke-width="1" viewBox="0 0 24 24" xmlns="http://www.w3.org/2000/svg">
   <path d="M7 16a2 2 0 1 0 0-4 2 2 0 0 0 0 4Z"></path>
   <path d="M17 16a2 2 0 1 0 0-4 2 2 0 0 0 0 4Z"></path>
   <path d="M14 14V3.6a.6.6 0 0 0-.6-.6H2.6a.6.6 0 0 0-.6.6v9.8a.6.6 0 0 0 .6.6h2.05"></path>
   <path d="M14 14H9.05"></path>
   <path d="M14 6h5.61a.6.6 0 0 1 .548.356l1.79 4.028a.6.6 0 0 1 .052.243V13.4a.6.6 0 0 1-.6.6h-1.9"></path>
   <path d="M14 14h1"></path>
   <path d="M20.75 20 19 18.25M3 20h17.75H3Zm0 0 1.75 1.75L3 20Zm0 0 1.75-1.75L3 20Zm17.75 0L19 21.75 20.75 20Z"></path>
</svg>