<svg width="32" height="32" fill="none" stroke="currentColor" stroke-linecap="round" stroke-linejoin="round" stroke-width="1" viewBox="0 0 24 24" xmlns="http://www.w3.org/2000/svg">
   <path d="M7 16.248a.6.6 0 0 0-.176-.424l-3.648-3.648A.6.6 0 0 1 3 11.75V4a2 2 0 0 1 2-2h14a2 2 0 0 1 2 2v7.752a.6.6 0 0 1-.176.424l-3.648 3.648a.6.6 0 0 0-.176.425V20a2 2 0 0 1-2 2H9a2 2 0 0 1-2-2v-3.752Z"></path>
   <path d="M14 10.4h-4m-.5 1.1.5-1.1-.5 1.1Zm5 0-.5-1.1.5 1.1Zm-.5-1.1L12 6l-2 4.4h4Z"></path>
</svg>