<svg width="32" height="32" fill="none" stroke="currentColor" stroke-linecap="round" stroke-linejoin="round" stroke-width="1" viewBox="0 0 24 24" xmlns="http://www.w3.org/2000/svg">
   <path d="M2 20v-1a7 7 0 0 1 7-7"></path>
   <path d="M15.804 12.31a1.618 1.618 0 0 1 2.392 0c.325.356.791.55 1.272.527a1.618 1.618 0 0 1 1.692 1.691c-.023.481.17.948.527 1.272.704.642.704 1.75 0 2.392-.357.325-.55.791-.527 1.272a1.618 1.618 0 0 1-1.692 1.692 1.618 1.618 0 0 0-1.272.527 1.618 1.618 0 0 1-2.392 0 1.618 1.618 0 0 0-1.272-.527 1.618 1.618 0 0 1-1.691-1.692 1.618 1.618 0 0 0-.527-1.271 1.618 1.618 0 0 1 0-2.393 1.62 1.62 0 0 0 .527-1.272 1.618 1.618 0 0 1 1.691-1.691 1.62 1.62 0 0 0 1.272-.527Z"></path>
   <path d="m15.363 16.997 1.091 1.091 2.182-2.182"></path>
   <path d="M9 12a4 4 0 1 0 0-8 4 4 0 0 0 0 8Z"></path>
</svg>