<svg width="32" height="32" fill="none" stroke="currentColor" stroke-linecap="round" stroke-linejoin="round" stroke-width="1" viewBox="0 0 24 24" xmlns="http://www.w3.org/2000/svg">
   <path d="M16.5 5h3.9a.6.6 0 0 1 .6.6v14.8a.6.6 0 0 1-.6.6H3.6a.6.6 0 0 1-.6-.6V5.6a.6.6 0 0 1 .6-.6h3.9"></path>
   <path d="m16.278 6.329.205-1.23a.605.605 0 0 0 0-.198l-.205-1.23A2 2 0 0 0 14.305 2H9.694A2 2 0 0 0 7.72 3.671l-.205 1.23a.6.6 0 0 0 0 .198l.205 1.23A2 2 0 0 0 9.694 8h4.611a2 2 0 0 0 1.973-1.671Z"></path>
   <path d="m12 8-1-2.5"></path>
</svg>