<svg width="32" height="32" fill="none" stroke="currentColor" stroke-linecap="round" stroke-linejoin="round" stroke-width="1" viewBox="0 0 24 24" xmlns="http://www.w3.org/2000/svg">
   <path d="M3.338 17A9.996 9.996 0 0 0 12 22a9.996 9.996 0 0 0 8.662-5"></path>
   <path d="M3.338 7A9.996 9.996 0 0 1 12 2a9.996 9.996 0 0 1 8.662 5"></path>
   <path d="M13 21.95s1.408-1.853 2.295-4.95"></path>
   <path d="M13 2.047s1.408 1.854 2.295 4.95"></path>
   <path d="M11 21.95S9.592 20.098 8.705 17"></path>
   <path d="M11 2.047S9.592 3.9 8.705 6.997"></path>
   <path d="m9 10 1.5 5 1.5-5 1.5 5 1.5-5"></path>
   <path d="m1 10 1.5 5L4 10l1.5 5L7 10"></path>
   <path d="m17 10 1.5 5 1.5-5 1.5 5 1.5-5"></path>
</svg>