<svg width="32" height="32" fill="none" stroke="currentColor" stroke-linecap="round" stroke-linejoin="round" stroke-width="1" viewBox="0 0 24 24" xmlns="http://www.w3.org/2000/svg">
   <path fill="currentColor" d="m14 12-3.5 2v-4l3.5 2Z"></path>
   <path d="M2 12.706v-1.415c0-2.895 0-4.343.905-5.275.906-.931 2.332-.971 5.183-1.052 1.35-.038 2.73-.066 3.912-.066 1.181 0 2.561.028 3.912.066 2.851.08 4.277.121 5.182 1.052.906.932.906 2.38.906 5.275v1.415c0 2.895 0 4.343-.905 5.274-.906.932-2.331.972-5.183 1.053-1.35.038-2.73.066-3.912.066-1.181 0-2.561-.028-3.912-.066-2.851-.08-4.277-.121-5.183-1.053C2 17.05 2 15.601 2 12.706Z"></path>
</svg>