<?xml version="1.0" standalone="no"?>
<!DOCTYPE svg PUBLIC "-//W3C//DTD SVG 20010904//EN"
 "http://www.w3.org/TR/2001/REC-SVG-20010904/DTD/svg10.dtd">
<svg version="1.0" xmlns="http://www.w3.org/2000/svg"
 width="182.000000pt" height="165.000000pt" viewBox="0 0 182.000000 165.000000"
 preserveAspectRatio="xMidYMid meet">
<metadata>
Created by potrace 1.16, written by Peter Selinger 2001-2019
</metadata>
<g transform="translate(0.000000,165.000000) scale(0.100000,-0.100000)"
fill="#000000" stroke="none">
<path d="M0 825 l0 -825 910 0 910 0 0 825 0 825 -910 0 -910 0 0 -825z m832
195 c116 -116 215 -210 220 -210 5 0 85 75 179 168 94 92 177 171 185 175 12
7 14 -42 14 -347 l0 -356 -26 -6 c-17 -4 -29 -2 -35 7 -5 8 -9 134 -9 282 0
147 -3 267 -7 267 -4 0 -71 -63 -148 -140 -78 -77 -148 -140 -155 -140 -18 0
-500 480 -500 497 0 8 13 13 36 13 32 0 51 -16 246 -210z m518 200 c0 -8 -236
-248 -288 -292 -16 -14 -53 17 -45 37 2 8 62 71 131 140 117 116 130 125 164
125 21 0 38 -5 38 -10z m-390 -542 c0 -5 -17 -8 -37 -8 -35 0 -48 11 -205 167
-114 113 -169 162 -173 152 -2 -7 -6 -135 -7 -284 l-3 -270 -24 -3 c-13 -2
-28 2 -32 10 -10 16 -12 702 -2 712 7 7 483 -462 483 -476z m-289 -50 c0 -215
2 -198 -25 -198 -13 0 -27 7 -30 16 -3 9 -6 94 -6 189 0 184 6 206 43 159 15
-20 18 -44 18 -166z m617 -9 l-3 -184 -32 -3 -33 -3 0 167 0 168 27 28 c15 15
31 24 35 20 5 -5 7 -91 6 -193z"/>
</g>
</svg>
