<svg width="200" height="200" viewBox="0 0 200 200" xmlns="http://www.w3.org/2000/svg">
  <path d="M30 180 C30 180 30 120 30 80 C30 40 50 20 80 20 C100 20 120 30 130 50 C140 30 160 20 180 20 C210 20 230 40 230 80 C230 120 230 180 230 180 C220 180 210 180 200 180 C200 180 200 120 200 80 C200 60 190 50 180 50 C170 50 160 60 150 80 L150 120 C150 140 140 150 130 150 C120 150 110 140 110 120 L110 80 C100 60 90 50 80 50 C70 50 60 60 60 80 C60 120 60 180 60 180 C50 180 40 180 30 180 Z" fill="white"/>
</svg>