<?xml version="1.0" standalone="no"?>
<!DOCTYPE svg PUBLIC "-//W3C//DTD SVG 20010904//EN"
 "http://www.w3.org/TR/2001/REC-SVG-20010904/DTD/svg10.dtd">
<svg version="1.0" xmlns="http://www.w3.org/2000/svg"
 width="500.000000pt" height="500.000000pt" viewBox="0 0 500.000000 500.000000"
 preserveAspectRatio="xMidYMid meet">
<metadata>
Created by potrace 1.16, written by Peter Selinger 2001-2019
</metadata>
<g transform="translate(0.000000,500.000000) scale(0.100000,-0.100000)"
fill="#000000" stroke="none">
<path d="M0 2500 l0 -2500 2500 0 2500 0 0 2500 0 2500 -2500 0 -2500 0 0
-2500z m2422 203 l218 -217 152 150 c83 82 163 161 176 177 52 59 52 57 52
-328 l0 -355 -24 -6 c-45 -11 -46 -6 -46 277 0 194 -3 269 -11 269 -7 0 -72
-61 -147 -135 -74 -74 -142 -135 -151 -135 -9 0 -129 113 -266 251 -218 219
-247 252 -230 259 46 19 60 9 277 -207z m525 204 c8 -9 -287 -307 -304 -307
-14 0 -43 28 -43 41 0 6 60 70 134 143 125 124 137 133 170 132 19 -1 39 -5
43 -9z m-628 -306 c131 -132 237 -242 233 -245 -3 -3 -21 -6 -41 -6 -33 0 -49
13 -197 161 -167 167 -187 179 -184 110 1 -20 2 -142 1 -272 l-1 -237 -30 -4
c-19 -3 -31 0 -35 10 -9 25 -5 722 4 722 6 0 118 -108 250 -239z m-70 -135
c19 -30 21 -49 21 -182 0 -160 -4 -178 -41 -172 l-24 3 -3 180 c-3 222 3 243
47 171z m631 -167 l0 -189 -35 0 -35 0 0 167 0 167 27 28 c14 15 30 25 35 22
4 -3 8 -90 8 -195z"/>
</g>
</svg>
