<?xml version="1.0" standalone="no"?>
<!DOCTYPE svg PUBLIC "-//W3C//DTD SVG 20010904//EN"
 "http://www.w3.org/TR/2001/REC-SVG-20010904/DTD/svg10.dtd">
<svg version="1.0" xmlns="http://www.w3.org/2000/svg"
 width="500" height="500" viewBox="0 0 500 500"
 preserveAspectRatio="xMidYMid meet">
<metadata>
Created by convert_logo.sh - Square centered logo
</metadata>
<g transform="translate(0,500) scale(0.1,-0.1)" fill="#000000" stroke="none">
<path d="M0 2500 l0 -2500 2500 0 2500 0 0 2500 0 2500 -2500 0 -2500 0 0-2500z m2470 186 c41 -61 45 -62 71 -19 34 58 45 63 129 63 89 0 86 2 153-110 24 -41 74 -124 111 -183 36 -60 66 -110 66 -113 0 -2 -19 -35 -42 -73-44 -74 -56 -81 -128 -77 -19 2 -50 3 -67 4 -27 2 -36 9 -52 40 -35 68 -46 70-75 13 -27 -53 -49 -63 -121 -57 -16 2 -42 4 -58 4 -20 2 -36 14 -59 47 -3955 -41 55 -73 1 -18 -30 -35 -46 -53 -50 -32 -7 -134 -2 -148 7 -15 9 -84 123-84 138 0 13 141 269 197 357 l34 52 84 0 84 0 31 -44z M2320 2683 c0 -9 179-304 198 -325 15 -18 62 -23 94 -10 15 6 13 15 -22 70 -22 35 -40 64 -40 66 05 -108 176 -121 192 -11 14 -109 20 -109 7z M2630 2682 c0 -4 11 -23 24 -4314 -20 33 -51 44 -70 40 -70 122 -202 133 -215 12 -14 104 -12 104 3 0 4 -2041 -45 81 -25 40 -49 81 -55 90 -95 164 -93 162 -152 162 -29 0 -53 -3 -53 -8zM2263 2648 c-23 -30 -183 -316 -183 -327 0 -7 11 -28 23 -47 29 -42 30 -41106 93 74 132 64 133 161 -27 61 -101 69 -105 100 -54 l22 35 -102 170 c-103171 -110 179 -127 157z M2561 2627 c-26 -42 -26 -57 -3 -88 10 -13 54 -84 97-156 91 -153 95 -156 125 -100 l22 42 -99 164 c-55 91 -104 166 -110 168 -6 2-20 -11 -32 -30z M2221 2313 c-54 -94 -54 -103 7 -103 66 0 118 89 86 148 -2954 -38 50 -93 -45z M2867 2300 c-38 -5 -85 -58 -72 -81 7 -11 75 -12 90 -1 128 55 67 55 75 0 9 -35 13 -73 7z M2497 2261 c-29 -44 -24 -51 36 -51 38 0 465 75 47 30 42 29 43 -32 43 -51 0 -54 -2 -79 -39z" fill="#000000" stroke="none"/>
</g>
</svg>
