<svg width="240" height="200" viewBox="0 0 240 200" xmlns="http://www.w3.org/2000/svg">
  <!-- Clean 3D Isometric M Logo - Refined Version -->
  
  <!-- Left vertical pillar -->
  <g>
    <!-- Front face -->
    <path d="M40 50 L60 50 L60 150 L40 150 Z" fill="#ffffff" stroke="none"/>
    <!-- Top face -->
    <path d="M40 50 L50 40 L70 40 L60 50 Z" fill="#f8f8f8" stroke="none"/>
    <!-- Right face -->
    <path d="M60 50 L70 40 L70 140 L60 150 Z" fill="#e8e8e8" stroke="none"/>
  </g>
  
  <!-- Left diagonal connector -->
  <g>
    <!-- Front face -->
    <path d="M60 50 L100 100 L90 110 L50 60 Z" fill="#ffffff" stroke="none"/>
    <!-- Top face -->
    <path d="M60 50 L70 40 L110 90 L100 100 Z" fill="#f8f8f8" stroke="none"/>
    <!-- Right face -->
    <path d="M100 100 L110 90 L100 100 L90 110 Z" fill="#e8e8e8" stroke="none"/>
  </g>
  
  <!-- Center vertical pillar -->
  <g>
    <!-- Front face -->
    <path d="M100 100 L120 100 L120 150 L100 150 Z" fill="#ffffff" stroke="none"/>
    <!-- Top face -->
    <path d="M100 100 L110 90 L130 90 L120 100 Z" fill="#f8f8f8" stroke="none"/>
    <!-- Right face -->
    <path d="M120 100 L130 90 L130 140 L120 150 Z" fill="#e8e8e8" stroke="none"/>
  </g>
  
  <!-- Right diagonal connector -->
  <g>
    <!-- Front face -->
    <path d="M140 100 L180 60 L190 50 L150 90 Z" fill="#ffffff" stroke="none"/>
    <!-- Top face -->
    <path d="M140 100 L150 90 L190 50 L180 60 Z" fill="#f8f8f8" stroke="none"/>
    <!-- Right face -->
    <path d="M180 60 L190 50 L200 60 L190 70 Z" fill="#e8e8e8" stroke="none"/>
  </g>
  
  <!-- Right vertical pillar -->
  <g>
    <!-- Front face -->
    <path d="M180 50 L200 50 L200 150 L180 150 Z" fill="#ffffff" stroke="none"/>
    <!-- Top face -->
    <path d="M180 50 L190 40 L210 40 L200 50 Z" fill="#f8f8f8" stroke="none"/>
    <!-- Right face -->
    <path d="M200 50 L210 40 L210 140 L200 150 Z" fill="#e8e8e8" stroke="none"/>
  </g>
</svg>