<?xml version="1.0" standalone="no"?>
<!DOCTYPE svg PUBLIC "-//W3C//DTD SVG 20010904//EN"
 "http://www.w3.org/TR/2001/REC-SVG-20010904/DTD/svg10.dtd">
<svg version="1.0" xmlns="http://www.w3.org/2000/svg"
 width="500" height="500" viewBox="0 0 500 500"
 preserveAspectRatio="xMidYMid meet">
<metadata>
Created by convert_logo.sh - Square centered logo
</metadata>
<g transform="translate(0,500) scale(0.1,-0.1)" fill="#000000" stroke="none">
<path d="M0 2500 l0 -2500 2500 0 2500 0 0 2500 0 2500 -2500 0 -2500 0 0-2500z m2456 80 l118 -69 65 36 c36 20 90 51 119 69 57 37 77 40 117 22 38-17 30 -25 -121 -116 -172 -103 -172 -103 -209 -84 -66 33 -295 174 -295 1810 11 41 30 67 30 12 1 75 -30 139 -69z m-180 -19 c8 -7 38 -25 134 -78 120-66 145 -88 148 -127 5 -61 -7 -60 -123 9 -60 36 -115 65 -122 65 -10 0 -13-33 -13 -150 0 -162 -5 -175 -50 -130 -29 29 -31 420 -2 420 10 0 22 -4 28 -9zm645 -43 c3 -335 2 -352 -22 -371 -39 -32 -44 -19 -44 133 0 160 -2 163 -61129 -22 -13 -64 -36 -94 -52 -30 -17 -63 -37 -73 -45 -25 -22 -39 -4 -35 43 231 9 42 33 55 17 10 82 49 145 88 143 88 150 89 151 20z m-541 -158 c34 -2637 -190 4 -215 -41 -32 -49 -17 -52 99 -4 144 0 153 48 116z m440 -105 c0-115 -2 -125 -18 -125 -41 0 -53 31 -50 131 3 94 15 118 61 119 4 0 7 -56 7-125z" fill="#000000" stroke="none"/>
</g>
</svg>
