<svg width="200" height="200" viewBox="0 0 200 200" xmlns="http://www.w3.org/2000/svg">
  <!-- Golden M Logo - V1: 3D Isometric Blocks (matching reference) -->
  
  <!-- Left vertical block - 3D isometric -->
  <g>
    <!-- Front face -->
    <rect x="50" y="70" width="20" height="60" fill="#ffffff"/>
    <!-- Top face -->
    <path d="M50 70 L60 60 L80 60 L70 70 Z" fill="#e8e8e8"/>
    <!-- Right face -->
    <path d="M70 70 L80 60 L80 120 L70 130 Z" fill="#d0d0d0"/>
  </g>
  
  <!-- Right vertical block - 3D isometric -->
  <g>
    <!-- Front face -->
    <rect x="130" y="70" width="20" height="60" fill="#ffffff"/>
    <!-- Top face -->
    <path d="M130 70 L140 60 L160 60 L150 70 Z" fill="#e8e8e8"/>
    <!-- Right face -->
    <path d="M150 70 L160 60 L160 120 L150 130 Z" fill="#d0d0d0"/>
  </g>
  
  <!-- Center connecting diagonal blocks -->
  <g>
    <!-- Left diagonal block -->
    <path d="M70 70 L100 90 L95 95 L65 75 Z" fill="#ffffff"/>
    <path d="M70 70 L75 65 L105 85 L100 90 Z" fill="#e8e8e8"/>
    
    <!-- Right diagonal block -->
    <path d="M100 90 L130 70 L135 75 L105 95 Z" fill="#ffffff"/>
    <path d="M130 70 L135 65 L140 70 L135 75 Z" fill="#e8e8e8"/>
  </g>
</svg>