<?xml version="1.0" encoding="UTF-8"?>
<svg version="1.1" xmlns="http://www.w3.org/2000/svg" width="182" height="165">
<path d="M0 0 C60.06 0 120.12 0 182 0 C182 54.45 182 108.9 182 165 C121.94 165 61.88 165 0 165 C0 110.55 0 56.1 0 0 Z " fill="#020202" transform="translate(0,0)"/>
<path d="M0 0 C6.75 -0.125 6.75 -0.125 9 1 C9 1.99 9 2.98 9 4 C9.66 4 10.32 4 11 4 C11.33 4.66 11.66 5.32 12 6 C12.99 6.309375 13.98 6.61875 15 6.9375 C15.99 7.288125 16.98 7.63875 18 8 C18.33 8.99 18.66 9.98 19 11 C19.66 11.33 20.32 11.66 21 12 C21.66 12.33 22.32 12.66 23 13 C23.33 13.99 23.66 14.98 24 16 C24.66 16.33 25.32 16.66 26 17 C26.66 17.33 27.32 17.66 28 18 C28.33 18.99 28.66 19.98 29 21 C29.639375 21.309375 30.27875 21.61875 30.9375 21.9375 C33.486349 23.25054342 33.78245927 24.48374915 35 27 C35.99 27.33 36.98 27.66 38 28 C38.495 29.485 38.495 29.485 39 31 C39.928125 31.433125 39.928125 31.433125 40.875 31.875 C43.72776181 33.38528566 44.60270807 35.13555155 46 38 C46 38.99 46 39.98 46 41 C51.98804703 40.64776194 53.99834975 39.33762088 58 35 C58.8765625 34.05125 59.753125 33.1025 60.65625 32.125 C61.60446788 31.08360752 62.55237179 30.04192909 63.5 29 C68.47964798 23.5530907 73.62321115 18.29948122 78.8984375 13.13867188 C81.81487587 10.34992393 81.81487587 10.34992393 84 7 C85.32 7 86.64 7 88 7 C88 30.76 88 54.52 88 79 C86.02 79 84.04 79 82 79 C81 78 81 78 80.87974548 75.82969666 C80.88196609 74.87261307 80.88418671 73.91552948 80.88647461 72.92944336 C80.88658791 71.30787575 80.88658791 71.30787575 80.88670349 69.65354919 C80.89186478 68.4775264 80.89702606 67.3015036 80.90234375 66.08984375 C80.9037587 64.89267227 80.90517365 63.69550079 80.90663147 62.46205139 C80.91225021 58.62050934 80.92480589 54.77902457 80.9375 50.9375 C80.94251259 48.34049563 80.94707591 45.74349035 80.95117188 43.14648438 C80.96222573 36.76430321 80.97898208 30.3821557 81 24 C79.71512984 25.11892986 78.43101337 26.23872525 77.1472168 27.35888672 C76.43204391 27.98238007 75.71687103 28.60587341 74.98002625 29.2482605 C72.8456787 31.13652885 70.80822733 33.09097514 68.8125 35.125 C68.15378906 35.79402344 67.49507813 36.46304688 66.81640625 37.15234375 C65.91728516 38.06693359 65.91728516 38.06693359 65 39 C64.0925 39.886875 63.185 40.77375 62.25 41.6875 C59.46514701 44.54971001 56.79506462 47.40987077 55 51 C52.36 51 49.72 51 47 51 C47 50.34 47 49.68 47 49 C46.01 49 45.02 49 44 49 C43.731875 48.360625 43.46375 47.72125 43.1875 47.0625 C42.11332248 44.66868314 42.11332248 44.66868314 39 44 C38.33333333 42.66666667 37.66666667 41.33333333 37 40 C36.01 39.67 35.02 39.34 34 39 C33.33333333 37.66666667 32.66666667 36.33333333 32 35 C30.515 34.505 30.515 34.505 29 34 C28.33333333 32.66666667 27.66666667 31.33333333 27 30 C26.01 29.67 25.02 29.34 24 29 C24 28.34 24 27.68 24 27 C23.01 26.67 22.02 26.34 21 26 C19.5 23.5 19.5 23.5 18 21 C16.45072035 19.41496774 14.85415096 17.91249599 13.20703125 16.4296875 C12 15 12 15 12 12 C11.443125 11.773125 10.88625 11.54625 10.3125 11.3125 C7.37800676 9.64697681 5.37778824 7.37778824 3 5 C2.01 4.67 1.02 4.34 0 4 C0 2.68 0 1.36 0 0 Z " fill="#F0F0F0" transform="translate(55,42)"/>
<path d="M0 0 C0.99 0 1.98 0 3 0 C4.01763839 1.65595588 5.01291412 3.32565259 6 5 C8.02712047 7.28348657 10.22362707 9.38600661 12.41796875 11.5078125 C13.68435463 12.75379463 14.95062736 13.99989176 16.21679688 15.24609375 C18.20941025 17.19505165 20.20442846 19.14147504 22.2019043 21.08544922 C24.13443711 22.96988786 26.05782333 24.86329506 27.98046875 26.7578125 C28.58352341 27.33910919 29.18657806 27.92040588 29.8079071 28.51931763 C31.26296714 29.95672888 32.63942068 31.47285406 34 33 C34 33.99 34 34.98 34 36 C34.54140625 36.0515625 35.0828125 36.103125 35.640625 36.15625 C39.11052387 37.39714099 41.25268433 39.89781018 43.75 42.5 C44.25660156 43.01175781 44.76320312 43.52351563 45.28515625 44.05078125 C49 47.84572945 49 47.84572945 49 49 C45.09998332 49.52311189 41.53133286 49.90986298 38.05157471 47.84231567 C36.13607282 46.14127878 34.39780061 44.35865957 32.6640625 42.47265625 C32.0180307 41.80914658 31.3719989 41.1456369 30.70639038 40.46202087 C28.65685314 38.34914468 26.6405154 36.20780785 24.625 34.0625 C22.58223242 31.92722883 20.5331351 29.79835471 18.4793396 27.6736908 C17.20608773 26.3523658 15.94034737 25.02375256 14.68301392 23.68727112 C14.11166718 23.08672409 13.54032043 22.48617706 12.95166016 21.86743164 C12.45252106 21.33670547 11.95338196 20.80597931 11.43911743 20.25917053 C9.90569731 18.75372915 9.90569731 18.75372915 7 18 C7 36.81 7 55.62 7 75 C4.69 75 2.38 75 0 75 C0 50.25 0 25.5 0 0 Z " fill="#B0B0B0" transform="translate(47,48)"/>
<path d="M0 0 C6.75 -0.125 6.75 -0.125 9 1 C9 1.99 9 2.98 9 4 C9.66 4 10.32 4 11 4 C11.33 4.66 11.66 5.32 12 6 C12.99 6.309375 13.98 6.61875 15 6.9375 C15.99 7.288125 16.98 7.63875 18 8 C18.33 8.99 18.66 9.98 19 11 C19.66 11.33 20.32 11.66 21 12 C21.66 12.33 22.32 12.66 23 13 C23.33 13.99 23.66 14.98 24 16 C24.66 16.33 25.32 16.66 26 17 C26.66 17.33 27.32 17.66 28 18 C28.33 18.99 28.66 19.98 29 21 C29.639375 21.309375 30.27875 21.61875 30.9375 21.9375 C33.486349 23.25054342 33.78245927 24.48374915 35 27 C35.99 27.33 36.98 27.66 38 28 C38.495 29.485 38.495 29.485 39 31 C39.928125 31.433125 39.928125 31.433125 40.875 31.875 C43.72776181 33.38528566 44.60270807 35.13555155 46 38 C46 38.99 46 39.98 46 41 C46.99 41.33 47.98 41.66 49 42 C49 42.66 49 43.32 49 44 C49.99 44.33 50.98 44.66 52 45 C50.68 45 49.36 45 48 45 C48 46.65 48 48.3 48 50 C53.29158974 48.59928507 55.77478044 45.14512755 59 41 C59.99 41.495 59.99 41.495 61 42 C59.28204023 45.27974139 57.53166875 48.28295801 55 51 C51.984172 51.82692058 50.15853062 51.49011682 47 51 C47 50.34 47 49.68 47 49 C46.01 49 45.02 49 44 49 C43.731875 48.360625 43.46375 47.72125 43.1875 47.0625 C42.11332248 44.66868314 42.11332248 44.66868314 39 44 C38.33333333 42.66666667 37.66666667 41.33333333 37 40 C36.01 39.67 35.02 39.34 34 39 C33.33333333 37.66666667 32.66666667 36.33333333 32 35 C30.515 34.505 30.515 34.505 29 34 C28.33333333 32.66666667 27.66666667 31.33333333 27 30 C26.01 29.67 25.02 29.34 24 29 C24 28.34 24 27.68 24 27 C23.01 26.67 22.02 26.34 21 26 C19.5 23.5 19.5 23.5 18 21 C16.45072035 19.41496774 14.85415096 17.91249599 13.20703125 16.4296875 C12 15 12 15 12 12 C11.443125 11.773125 10.88625 11.54625 10.3125 11.3125 C7.37800676 9.64697681 5.37778824 7.37778824 3 5 C2.01 4.67 1.02 4.34 0 4 C0 2.68 0 1.36 0 0 Z " fill="#C2C1C2" transform="translate(55,42)"/>
<path d="M0 0 C10.56603774 9.05660377 10.56603774 9.05660377 12 13 C11.625 15.25 11.625 15.25 11 17 C9.02 16.34 7.04 15.68 5 15 C5 33.48 5 51.96 5 71 C3.35 71 1.7 71 0 71 C0 47.57 0 24.14 0 0 Z " fill="#E7E7E7" transform="translate(48,49)"/>
<path d="M0 0 C1.32 0 2.64 0 4 0 C4 23.76 4 47.52 4 72 C2.02 72 0.04 72 -2 72 C-3 71 -3 71 -3.12025452 68.82969666 C-3.11803391 67.87261307 -3.11581329 66.91552948 -3.11352539 65.92944336 C-3.11344986 64.84839828 -3.11337433 63.76735321 -3.11329651 62.65354919 C-3.10813522 61.4775264 -3.10297394 60.3015036 -3.09765625 59.08984375 C-3.0962413 57.89267227 -3.09482635 56.69550079 -3.09336853 55.46205139 C-3.08774979 51.62050934 -3.07519411 47.77902457 -3.0625 43.9375 C-3.05748741 41.34049563 -3.05292409 38.74349035 -3.04882812 36.14648438 C-3.03777427 29.76430321 -3.02101792 23.3821557 -3 17 C-4.2843695 18.11646507 -5.56769826 19.23412747 -6.85058594 20.35229492 C-7.56535095 20.97456467 -8.28011597 21.59683441 -9.01654053 22.23796082 C-11.88072657 24.78240808 -14.50269771 27.52659738 -17.140625 30.30078125 C-19.00308264 32.00281712 -20.69810382 32.99673994 -23 34 C-21.89513102 30.68539307 -21.12376914 30.03023894 -18.5 27.875 C-13.73194412 23.84115562 -9.36796972 19.45896909 -5 15 C-4.01 15.33 -3.02 15.66 -2 16 C-2 33.82 -2 51.64 -2 70 C-0.68 70 0.64 70 2 70 C2 47.89 2 25.78 2 3 C-4.07264518 8.25040321 -4.07264518 8.25040321 -9.84375 13.74609375 C-10.44960937 14.35517578 -11.05546875 14.96425781 -11.6796875 15.59179688 C-12.58074219 16.50541992 -12.58074219 16.50541992 -13.5 17.4375 C-14.13164063 18.07365234 -14.76328125 18.70980469 -15.4140625 19.36523438 C-16.94505774 20.90782806 -18.47287667 22.45357314 -20 24 C-20.66 23.67 -21.32 23.34 -22 23 C-21.36908447 22.37432129 -20.73816895 21.74864258 -20.08813477 21.10400391 C-17.75100365 18.78390381 -15.41613222 16.46157708 -13.08276367 14.13769531 C-12.07194415 13.13190797 -11.06022938 12.12701952 -10.04760742 11.12304688 C-8.59318144 9.68073517 -7.14199385 8.23523328 -5.69140625 6.7890625 C-4.81685791 5.91975098 -3.94230957 5.05043945 -3.04125977 4.15478516 C-0.96493227 2.17190998 -0.96493227 2.17190998 0 0 Z " fill="#9A9A9A" transform="translate(139,49)"/>
<path d="M0 0 C-0.56670731 3.39297837 -1.4415158 4.70404813 -4.125 6.8125 C-9.40823498 11.18948665 -14.12429162 16.10068654 -18.89501953 21.02075195 C-19.52520996 21.66230225 -20.15540039 22.30385254 -20.8046875 22.96484375 C-21.37171387 23.5487085 -21.93874023 24.13257324 -22.52294922 24.73413086 C-24 26 -24 26 -26 26 C-26 26.66 -26 27.32 -26 28 C-26.99 28 -27.98 28 -29 28 C-29 28.66 -29 29.32 -29 30 C-30.32 29.34 -31.64 28.68 -33 28 C-32.1875 25.0625 -32.1875 25.0625 -31 22 C-30.01 21.67 -29.02 21.34 -28 21 C-27.30443922 19.68150941 -26.64176158 18.34549779 -26 17 C-24.84019388 15.67088533 -23.62630268 14.38788866 -22.375 13.14453125 C-21.66859375 12.44005859 -20.9621875 11.73558594 -20.234375 11.00976562 C-19.49703125 10.28466797 -18.7596875 9.55957031 -18 8.8125 C-17.26265625 8.07580078 -16.5253125 7.33910156 -15.765625 6.58007812 C-10.07491158 0.93609501 -7.99815205 -0.12900245 0 0 Z " fill="#D9D9D9" transform="translate(135,42)"/>
<path d="M0 0 C0 12.54 0 25.08 0 38 C-2.31 38 -4.62 38 -7 38 C-7.12394421 33.39194479 -7.21449675 28.78486719 -7.2746582 24.17553711 C-7.29974547 22.60895886 -7.33382415 21.04249701 -7.37719727 19.47631836 C-7.43811226 17.21959691 -7.46626499 14.96442706 -7.48828125 12.70703125 C-7.51408768 12.01100296 -7.5398941 11.31497467 -7.56648254 10.59785461 C-7.56872896 6.67012522 -7.09499594 5.11774946 -4.59448242 2.01831055 C-2 0 -2 0 0 0 Z " fill="#BEBEBE" transform="translate(129,84)"/>
<path d="M0 0 C1.32 0 2.64 0 4 0 C6.50916948 3.80282434 6.25607884 7.66162039 6.1953125 12.046875 C6.1924826 12.81807678 6.18965271 13.58927856 6.18673706 14.3838501 C6.17557013 16.83939332 6.15047229 19.2945676 6.125 21.75 C6.11496568 23.41796347 6.10584061 25.08593268 6.09765625 26.75390625 C6.07564225 30.83607897 6.04113667 34.917977 6 39 C4.35 39 2.7 39 1 39 C-0.61301773 35.77396455 -0.12053599 32.25289962 -0.09765625 28.7109375 C-0.0962413 27.89251373 -0.09482635 27.07408997 -0.09336853 26.23086548 C-0.0877629 23.61220675 -0.07520948 20.99363296 -0.0625 18.375 C-0.05748572 16.60156373 -0.05292269 14.82812613 -0.04882812 13.0546875 C-0.03779164 8.70309218 -0.02052325 4.3515605 0 0 Z " fill="#B0B0B0" transform="translate(61,83)"/>
<path d="M0 0 C0.99 0 1.98 0 3 0 C3 0.66 3 1.32 3 2 C4.32 2 5.64 2 7 2 C7.28875 2.804375 7.5775 3.60875 7.875 4.4375 C8.73262568 7.1326468 8.73262568 7.1326468 11 8 C11.07405295 12.80546679 11.12855497 17.6106029 11.16479492 22.41650391 C11.17989911 24.05197941 11.20038389 25.68741429 11.22631836 27.32275391 C11.26263145 29.67100024 11.27970932 32.01871205 11.29296875 34.3671875 C11.31619453 35.46726639 11.31619453 35.46726639 11.33988953 36.58956909 C11.34057617 38.65185547 11.34057617 38.65185547 11 42 C8 44 8 44 0 44 C0 29.48 0 14.96 0 0 Z M2 3 C1.97532083 8.23274388 1.95714997 13.46545403 1.94506836 18.69824219 C1.94003289 20.47917267 1.93320419 22.260099 1.92456055 24.04101562 C1.91246058 26.59766665 1.90676391 29.15426312 1.90234375 31.7109375 C1.89718246 32.50994476 1.89202118 33.30895203 1.88670349 34.13217163 C1.7866125 38.19691905 1.7866125 38.19691905 3 42 C4.65 42 6.3 42 8 42 C8.04949353 37.08871933 8.08576382 32.17758434 8.10986328 27.26611328 C8.1199115 25.59584015 8.13355236 23.92558458 8.15087891 22.25537109 C8.17517926 19.85249496 8.18649487 17.44985173 8.1953125 15.046875 C8.20563507 14.30193787 8.21595764 13.55700073 8.22659302 12.78948975 C8.22740368 9.03072358 8.10367118 6.18826289 6 3 C4.68 3 3.36 3 2 3 Z " fill="#4B4B4B" transform="translate(59,80)"/>
<path d="M0 0 C1.32 0.33 2.64 0.66 4 1 C3.01 1 2.02 1 1 1 C1 25.75 1 50.5 1 76 C3.31 76 5.62 76 8 76 C8 57.19 8 38.38 8 19 C9.32 19.33 10.64 19.66 12 20 C12.33 20.66 12.66 21.32 13 22 C12.01 22 11.02 22 10 22 C10.00222061 22.6742955 10.00444122 23.348591 10.00672913 24.0433197 C10.02877929 31.03432691 10.04390547 38.02532431 10.05493164 45.01635742 C10.05997377 47.62866619 10.06680725 50.24097211 10.07543945 52.85327148 C10.08751036 56.59880268 10.09322935 60.34429672 10.09765625 64.08984375 C10.10281754 65.26586655 10.10797882 66.44188934 10.11329651 67.65354919 C10.11337204 68.73459427 10.11344757 69.81563934 10.11352539 70.92944336 C10.115746 71.88652695 10.11796661 72.84361053 10.12025452 73.82969666 C10 76 10 76 9 77 C6.03 77 3.06 77 0 77 C0 51.59 0 26.18 0 0 Z " fill="#333333" transform="translate(46,47)"/>
<path d="M0 0 C4.63891425 0.27287731 6.7350467 2.29357326 9.86328125 5.4296875 C11 7 11 7 11 10 C11.54140625 10.0515625 12.0828125 10.103125 12.640625 10.15625 C16.11052387 11.39714099 18.25268433 13.89781018 20.75 16.5 C21.25660156 17.01175781 21.76320313 17.52351563 22.28515625 18.05078125 C26 21.84572945 26 21.84572945 26 23 C22.01302239 23.55046013 18.49198815 23.89434215 14.94482422 21.76806641 C12.97899702 20.04345124 11.20585746 18.23864343 9.4375 16.3125 C8.49680664 15.37374023 8.49680664 15.37374023 7.53710938 14.41601562 C3.10952482 9.80495429 3.10952482 9.80495429 2.59765625 6.04296875 C2.73042969 5.36878906 2.86320312 4.69460937 3 4 C2.01 4 1.02 4 0 4 C0 2.68 0 1.36 0 0 Z " fill="#DDDDDD" transform="translate(70,74)"/>
<path d="M0 0 C0.66 0 1.32 0 2 0 C2 16.83 2 33.66 2 51 C1.01 51 0.02 51 -1 51 C-1.02526787 43.89755001 -1.04283201 36.79511152 -1.05493164 29.69262695 C-1.05997349 27.27432828 -1.06680678 24.85603267 -1.07543945 22.43774414 C-1.08751157 18.97020717 -1.09322963 15.50271034 -1.09765625 12.03515625 C-1.10281754 10.94662857 -1.10797882 9.85810089 -1.11329651 8.73658752 C-1.11337204 7.73562546 -1.11344757 6.73466339 -1.11352539 5.70336914 C-1.115746 4.81734512 -1.11796661 3.93132111 -1.12025452 3.01844788 C-1 1 -1 1 0 0 Z " fill="#F8F8F8" transform="translate(49,68)"/>
<path d="M0 0 C0.66 0.33 1.32 0.66 2 1 C1.38125 1.5259375 1.38125 1.5259375 0.75 2.0625 C-1.21999228 4.09714731 -1.21999228 4.09714731 -2.875 7.375 C-6.08535571 13.14398507 -11.13142546 17.05421909 -16.09375 21.28515625 C-18.20098036 23.10451949 -18.20098036 23.10451949 -20.5 25.9375 C-24.10160875 28.90882722 -26.4309528 28.38720739 -31 28 C-31 25.69 -31 23.38 -31 21 C-30.34 20.67 -29.68 20.34 -29 20 C-28.814375 21.2065625 -28.814375 21.2065625 -28.625 22.4375 C-28.41875 23.283125 -28.2125 24.12875 -28 25 C-27.34 25.33 -26.68 25.66 -26 26 C-26 25.34 -26 24.68 -26 24 C-25.01 24 -24.02 24 -23 24 C-23 23.34 -23 22.68 -23 22 C-21.77734375 20.80078125 -21.77734375 20.80078125 -19.9375 19.3125 C-12.87122794 13.33236379 -6.499092 6.5816 0 0 Z " fill="#353535" transform="translate(132,46)"/>
<path d="M0 0 C1.32 0.33 2.64 0.66 4 1 C4 15.19 4 29.38 4 44 C1.03 44 -1.94 44 -5 44 C-5 31.13 -5 18.26 -5 5 C-4.34 5 -3.68 5 -3 5 C-2.67 4.01 -2.34 3.02 -2 2 C-1.34 2 -0.68 2 0 2 C0 1.34 0 0.68 0 0 Z M-1.59448242 6.01831055 C-4.5321105 9.65956211 -4.65413828 12.23368114 -4.48828125 16.70703125 C-4.48120651 17.43242599 -4.47413177 18.15782074 -4.46684265 18.90519714 C-4.43898406 21.20870703 -4.37627191 23.50973251 -4.3125 25.8125 C-4.28740563 27.37952203 -4.26459444 28.9465824 -4.24414062 30.51367188 C-4.18918681 34.34339656 -4.10298226 38.17127797 -4 42 C-1.69 42 0.62 42 3 42 C3 29.46 3 16.92 3 4 C0.71525153 3.79532913 0.71525153 3.79532913 -1.59448242 6.01831055 Z " fill="#464646" transform="translate(126,80)"/>
<path d="M0 0 C0.99 0 1.98 0 3 0 C3 0.66 3 1.32 3 2 C4.32 2 5.64 2 7 2 C7.33 3.65 7.66 5.3 8 7 C7.34 6.67 6.68 6.34 6 6 C6 5.01 6 4.02 6 3 C4.68 3 3.36 3 2 3 C2.33 16.2 2.66 29.4 3 43 C4.65 43 6.3 43 8 43 C8 43.33 8 43.66 8 44 C5.36 44 2.72 44 0 44 C0 29.48 0 14.96 0 0 Z " fill="#383838" transform="translate(59,80)"/>
<path d="M0 0 C0.99 0 1.98 0 3 0 C3 17.16 3 34.32 3 52 C2.34 52 1.68 52 1 52 C1 35.83 1 19.66 1 3 C0.01 2.67 -0.98 2.34 -2 2 C-1.34 1.34 -0.68 0.68 0 0 Z " fill="#181818" transform="translate(132,68)"/>
<path d="M0 0 C6.75 -0.125 6.75 -0.125 9 1 C9 1.99 9 2.98 9 4 C9.66 4 10.32 4 11 4 C12.625 5.375 12.625 5.375 14 7 C14 7.66 14 8.32 14 9 C14.66 9 15.32 9 16 9 C16.33 11.31 16.66 13.62 17 16 C16.34 16 15.68 16 15 16 C15 15.34 15 14.68 15 14 C14.34 14 13.68 14 13 14 C13 13.01 13 12.02 13 11 C11.9171875 10.9071875 11.9171875 10.9071875 10.8125 10.8125 C7.15130298 9.75482086 5.59192164 7.72833857 3 5 C2.01 4.67 1.02 4.34 0 4 C0 2.68 0 1.36 0 0 Z " fill="#ECECEC" transform="translate(55,42)"/>
<path d="M0 0 C0.99 0 1.98 0 3 0 C3 10.56 3 21.12 3 32 C2.01 32 1.02 32 0 32 C0 21.44 0 10.88 0 0 Z " fill="#FAFAFA" transform="translate(63,88)"/>
<path d="M0 0 C0.33 0 0.66 0 1 0 C1 10.56 1 21.12 1 32 C0.01 32 -0.98 32 -2 32 C-2.04938628 27.76417673 -2.08571263 23.52850535 -2.10986328 19.29248047 C-2.11992963 17.85104453 -2.1335838 16.40962905 -2.15087891 14.96826172 C-2.17510012 12.89806066 -2.18647641 10.82812924 -2.1953125 8.7578125 C-2.20578613 7.5114502 -2.21625977 6.26508789 -2.22705078 4.98095703 C-2 2 -2 2 0 0 Z " fill="#FCFCFC" transform="translate(127,88)"/>
<path d="M0 0 C0.99 0.33 1.98 0.66 3 1 C2.49138428 1.49814209 1.98276855 1.99628418 1.45874023 2.50952148 C-0.88715942 4.81333506 -3.22482946 7.12533795 -5.5625 9.4375 C-6.36236328 10.22060547 -7.16222656 11.00371094 -7.98632812 11.81054688 C-12.56113681 16.34801018 -16.69371831 20.9482909 -20.48925781 26.15991211 C-22.64567678 28.78643599 -24.77805121 29.99761593 -28 31 C-30.375 30.6875 -30.375 30.6875 -32 30 C-31.67 29.34 -31.34 28.68 -31 28 C-30.278125 28.103125 -29.55625 28.20625 -28.8125 28.3125 C-24.81047462 27.86783051 -23.53940266 26.01983019 -21 23 C-19.70480005 20.83379456 -19.70480005 20.83379456 -19 19 C-18.34 19 -17.68 19 -17 19 C-17 18.34 -17 17.68 -17 17 C-16.34 17 -15.68 17 -15 17 C-15 16.01 -15 15.02 -15 14 C-14.01 14 -13.02 14 -12 14 C-12 13.34 -12 12.68 -12 12 C-11.34 12 -10.68 12 -10 12 C-9.67 11.01 -9.34 10.02 -9 9 C-8.34 9 -7.68 9 -7 9 C-7 8.34 -7 7.68 -7 7 C-6.34 7 -5.68 7 -5 7 C-5 6.01 -5 5.02 -5 4 C-4.34 4 -3.68 4 -3 4 C-3 3.34 -3 2.68 -3 2 C-2.01 2 -1.02 2 0 2 C0 1.34 0 0.68 0 0 Z " fill="#424242" transform="translate(133,53)"/>
<path d="M0 0 C4.56167877 0.26833405 6.82493192 2.17492791 9.83984375 5.3671875 C11 7 11 7 11.375 9.875 C11.25125 10.57625 11.1275 11.2775 11 12 C8.36 11.01 5.72 10.02 3 9 C3 7.35 3 5.7 3 4 C2.01 4 1.02 4 0 4 C0 2.68 0 1.36 0 0 Z " fill="#DFDFDF" transform="translate(70,74)"/>
<path d="M0 0 C0 3 0 3 -1.5 5.4375 C-3.33678613 8.08046908 -3.33678613 8.08046908 -3 12 C-3.66 12 -4.32 12 -5 12 C-5.66 13.32 -6.32 14.64 -7 16 C-8.32 16 -9.64 16 -11 16 C-11 13 -11 10 -11 7 C-10.278125 6.938125 -9.55625 6.87625 -8.8125 6.8125 C-5.1410973 5.75187255 -3.52297062 3.80330069 -1 1 C-0.67 0.67 -0.34 0.34 0 0 Z " fill="#CBCBCB" transform="translate(114,76)"/>
<path d="M0 0 C3.96 0 7.92 0 12 0 C12.33 1.65 12.66 3.3 13 5 C13.66 5 14.32 5 15 5 C15.33 6.32 15.66 7.64 16 9 C15.01 8.67 14.02 8.34 13 8 C13 7.34 13 6.68 13 6 C12.34 6 11.68 6 11 6 C11 5.01 11 4.02 11 3 C8.03 2.67 5.06 2.34 2 2 C1.67 2.99 1.34 3.98 1 5 C0.67 3.35 0.34 1.7 0 0 Z " fill="#4E4E4E" transform="translate(53,40)"/>
<path d="M0 0 C0.66 0.33 1.32 0.66 2 1 C0.28204023 4.27974139 -1.46833125 7.28295801 -4 10 C-7.015828 10.82692058 -8.84146938 10.49011682 -12 10 C-12 9.34 -12 8.68 -12 8 C-12.99 8 -13.98 8 -15 8 C-15.33 6.68 -15.66 5.36 -16 4 C-15.34 4 -14.68 4 -14 4 C-14 4.66 -14 5.32 -14 6 C-13.01 6.33 -12.02 6.66 -11 7 C-11 7.66 -11 8.32 -11 9 C-5.70841026 7.59928507 -3.22521956 4.14512755 0 0 Z " fill="#7E7E7E" transform="translate(114,83)"/>
<path d="M0 0 C4.875 0.875 4.875 0.875 6 2 C6.04063832 3.66617115 6.042721 5.33388095 6 7 C4.02 6.34 2.04 5.68 0 5 C0 3.35 0 1.7 0 0 Z " fill="#EDEDED" transform="translate(75,79)"/>
<path d="M0 0 C0 0.99 0 1.98 0 3 C-0.61875 3.2475 -1.2375 3.495 -1.875 3.75 C-4.35068687 5.20628639 -4.95125002 6.37812506 -6 9 C-8.375 9.125 -8.375 9.125 -11 9 C-11.66 8.34 -12.32 7.68 -13 7 C-12.625 4.375 -12.625 4.375 -12 2 C-11.896875 2.61875 -11.79375 3.2375 -11.6875 3.875 C-11.12474627 6.36526484 -11.12474627 6.36526484 -8 8 C-8 7.34 -8 6.68 -8 6 C-7.01 6 -6.02 6 -5 6 C-5 5.34 -5 4.68 -5 4 C-3.37373596 2.61767557 -1.7074998 1.28062485 0 0 Z " fill="#7D7D7D" transform="translate(114,64)"/>
<path d="M0 0 C0.99 0 1.98 0 3 0 C3 1.32 3 2.64 3 4 C-0.96 4 -4.92 4 -9 4 C-8.67 3.01 -8.34 2.02 -8 1 C-5.36 1 -2.72 1 0 1 C0 0.67 0 0.34 0 0 Z " fill="#4F4F4F" transform="translate(95,95)"/>
<path d="M0 0 C0.66 0 1.32 0 2 0 C1.67 2.31 1.34 4.62 1 7 C-0.65 7.33 -2.3 7.66 -4 8 C-4 6.35 -4 4.7 -4 3 C-2.68 3 -1.36 3 0 3 C0 2.01 0 1.02 0 0 Z " fill="#F1F1F1" transform="translate(107,84)"/>
<path d="M0 0 C1.14926266 0.95421808 2.29430541 1.91352045 3.4375 2.875 C4.07558594 3.40867188 4.71367188 3.94234375 5.37109375 4.4921875 C7 6 7 6 8 8 C5.03 7.505 5.03 7.505 2 7 C1.67 7.99 1.34 8.98 1 10 C1 8.68 1 7.36 1 6 C0.69169075 3.99598989 0.36270588 1.99488234 0 0 Z " fill="#CFCFCF" transform="translate(58,59)"/>
<path d="M0 0 C1.14926266 0.95421808 2.29430541 1.91352045 3.4375 2.875 C4.07558594 3.40867187 4.71367188 3.94234375 5.37109375 4.4921875 C7 6 7 6 8 8 C6.02 8 4.04 8 2 8 C2.33 6.68 2.66 5.36 3 4 C2.34 4 1.68 4 1 4 C0.67 2.68 0.34 1.36 0 0 Z " fill="#D5D5D5" transform="translate(88,89)"/>
<path d="M0 0 C1.32 0.33 2.64 0.66 4 1 C2.71919608 3.56160784 1.5434419 3.76461393 -1 5 C-2.35113205 5.97581759 -3.68946944 6.97029741 -5 8 C-5 7.01 -5 6.02 -5 5 C-4.34 5 -3.68 5 -3 5 C-2.67 4.01 -2.34 3.02 -2 2 C-1.34 2 -0.68 2 0 2 C0 1.34 0 0.68 0 0 Z " fill="#202020" transform="translate(126,80)"/>
<path d="M0 0 C0.33 1.32 0.66 2.64 1 4 C-0.98 5.32 -2.96 6.64 -5 8 C-5.66 7.67 -6.32 7.34 -7 7 C-4.69 4.69 -2.38 2.38 0 0 Z " fill="#A6A6A6" transform="translate(124,44)"/>
<path d="M0 0 C1.98 0.99 1.98 0.99 4 2 C3.01 2.33 2.02 2.66 1 3 C1 6.96 1 10.92 1 15 C0.67 15 0.34 15 0 15 C0 10.05 0 5.1 0 0 Z " fill="#212121" transform="translate(55,66)"/>
<path d="M0 0 C2.49361571 1.20381448 4.68143083 2.45428722 7 4 C7 4.99 7 5.98 7 7 C5.1875 6.875 5.1875 6.875 3 6 C1.25 2.9375 1.25 2.9375 0 0 Z " fill="#555555" transform="translate(60,50)"/>
<path d="M0 0 C0.33 0 0.66 0 1 0 C1 1.98 1 3.96 1 6 C0.34 6 -0.32 6 -1 6 C-1.268125 6.639375 -1.53625 7.27875 -1.8125 7.9375 C-3 10 -3 10 -6 11 C-4.95125002 8.37812506 -4.35068687 7.20628639 -1.875 5.75 C-1.25625 5.5025 -0.6375 5.255 0 5 C0 3.35 0 1.7 0 0 Z " fill="#1D1D1D" transform="translate(136,41)"/>
<path d="M0 0 C0.33 1.32 0.66 2.64 1 4 C-0.65 5.32 -2.3 6.64 -4 8 C-4.66 7.67 -5.32 7.34 -6 7 C-4.02 4.69 -2.04 2.38 0 0 Z " fill="#2F2E2F" transform="translate(118,81)"/>
<path d="M0 0 C3.375 -0.125 3.375 -0.125 7 0 C7.66 0.66 8.32 1.32 9 2 C6.69 2 4.38 2 2 2 C2 2.66 2 3.32 2 4 C1.34 4 0.68 4 0 4 C0 2.68 0 1.36 0 0 Z " fill="#A9A9A9" transform="translate(55,42)"/>
<path d="M0 0 C0.33 0.66 0.66 1.32 1 2 C-1.3125 4.5 -1.3125 4.5 -4 7 C-4.99 7 -5.98 7 -7 7 C-4.69 4.69 -2.38 2.38 0 0 Z " fill="#232323" transform="translate(129,71)"/>
<path d="M0 0 C0.66 0 1.32 0 2 0 C0.50902342 3.7952131 -1.75700849 5.61042731 -5 8 C-5 7.01 -5 6.02 -5 5 C-4.34 5 -3.68 5 -3 5 C-2.67 4.01 -2.34 3.02 -2 2 C-1.34 2 -0.68 2 0 2 C0 1.34 0 0.68 0 0 Z " fill="#2E2E2E" transform="translate(126,60)"/>
</svg>
