<?xml version="1.0" standalone="no"?>
<!DOCTYPE svg PUBLIC "-//W3C//DTD SVG 20010904//EN"
 "http://www.w3.org/TR/2001/REC-SVG-20010904/DTD/svg10.dtd">
<svg version="1.0" xmlns="http://www.w3.org/2000/svg"
 width="500" height="500" viewBox="0 0 500 500"
 preserveAspectRatio="xMidYMid meet">
<metadata>
Created by convert_logo.sh - Square centered logo
</metadata>
<g transform="translate(0,500) scale(0.1,-0.1)" fill="#000000" stroke="none">
<path d="M0 2500 l0 -2500 2500 0 2500 0 0 2500 0 2500 -2500 0 -2500 0 0-2500z m2344 223 c50 -43 93 -81 96 -84 13 -18 96 -79 108 -79 10 0 216 170242 200 16 19 58 40 77 40 22 0 22 -2 25 -157 7 -354 2 -384 -57 -369 l-25 60 185 c0 200 -5 215 -50 158 -20 -25 -21 -38 -19 -181 2 -165 -1 -176 -47-170 l-29 3 -3 123 c-3 137 -4 139 -68 87 -23 -19 -45 -35 -49 -35 -4 0 -2616 -49 35 -61 50 -62 48 -64 -81 -2 -133 -2 -135 -45 -131 l-32 2 -3 166 -2166 -30 28 c-39 37 -39 36 -42 -180 l-3 -180 -35 0 -35 0 -3 250 c-1 137 0255 3 262 10 29 52 10 139 -64z m158 65 c41 -39 44 -40 76 -13 26 22 40 26 7823 56 -4 65 -17 27 -40 -16 -10 -50 -38 -76 -63 -27 -25 -55 -45 -62 -43 -215 -164 131 -159 140 8 13 101 9 116 -4z" fill="#000000" stroke="none"/>
</g>
</svg>
